<?xml version="1.0" standalone="no"?>
<svg width="567.429" height="485.295" viewBox="0 0 567.429 485.295" xmlns="http://www.w3.org/2000/svg">
<title>
/home/qiliqiang/Desktop/ex1.svg
</title>
<desc>
Creator: ROOT Version 5.34/30
CreationDate: Thu Jul  6 14:21:18 2017</desc>
<defs>
</defs>
<rect x="0.5" y="0" width="566.929" height="484.795" fill="white"/>
<rect x="57.1929" y="48.4795" width="453.543" height="387.836" fill="white"/>
<rect x="57.1929" y="48.4795" width="453.543" height="387.836" fill="none" stroke="black"/>
<rect x="57.1929" y="48.4795" width="453.543" height="387.836" fill="white"/>
<rect x="57.1929" y="48.4795" width="453.543" height="387.836" fill="none" stroke="black"/>
<rect x="60.3425" y="423.056" width="3.14961" height="3.31483" fill="#ff0000"/>
<rect x="63.4921" y="423.056" width="3.14961" height="3.31483" fill="#ff0000"/>
<rect x="69.7913" y="416.426" width="3.14961" height="3.31483" fill="#ff0000"/>
<rect x="69.7913" y="409.796" width="3.14961" height="3.31483" fill="#ff0000"/>
<rect x="76.0906" y="403.167" width="3.14961" height="3.31483" fill="#ff0000"/>
<rect x="79.2402" y="403.167" width="3.14961" height="3.31483" fill="#ff0000"/>
<rect x="79.2402" y="396.537" width="3.14961" height="3.31483" fill="#ff0000"/>
<rect x="82.3898" y="396.537" width="3.14961" height="3.31483" fill="#ff0000"/>
<rect x="94.9882" y="376.648" width="3.14961" height="3.31483" fill="#ff0000"/>
<rect x="113.886" y="363.389" width="3.14961" height="3.31483" fill="#ff0000"/>
<rect x="139.083" y="336.87" width="3.14961" height="3.31483" fill="#ff0000"/>
<rect x="157.98" y="323.611" width="3.14961" height="3.31483" fill="#ff0000"/>
<rect x="164.28" y="316.981" width="3.14961" height="3.31483" fill="#ff0000"/>
<rect x="224.122" y="263.944" width="3.14961" height="3.31483" fill="#ff0000"/>
<rect x="227.272" y="263.944" width="3.14961" height="3.31483" fill="#ff0000"/>
<rect x="230.421" y="257.314" width="3.14961" height="3.31483" fill="#ff0000"/>
<rect x="233.571" y="257.314" width="3.14961" height="3.31483" fill="#ff0000"/>
<rect x="236.72" y="250.684" width="3.14961" height="3.31483" fill="#ff0000"/>
<rect x="239.87" y="250.684" width="3.14961" height="3.31483" fill="#ff0000"/>
<rect x="243.02" y="250.684" width="3.14961" height="3.31483" fill="#ff0000"/>
<rect x="299.713" y="210.906" width="3.14961" height="3.31483" fill="#ff0000"/>
<rect x="302.862" y="210.906" width="3.14961" height="3.31483" fill="#ff0000"/>
<rect x="302.862" y="204.277" width="3.14961" height="3.31483" fill="#ff0000"/>
<rect x="306.012" y="204.277" width="3.14961" height="3.31483" fill="#ff0000"/>
<rect x="315.461" y="197.647" width="3.14961" height="3.31483" fill="#ff0000"/>
<rect x="321.76" y="197.647" width="3.14961" height="3.31483" fill="#ff0000"/>
<rect x="321.76" y="191.017" width="3.14961" height="3.31483" fill="#ff0000"/>
<rect x="328.059" y="191.017" width="3.14961" height="3.31483" fill="#ff0000"/>
<rect x="328.059" y="184.388" width="3.14961" height="3.31483" fill="#ff0000"/>
<rect x="334.358" y="184.388" width="3.14961" height="3.31483" fill="#ff0000"/>
<rect x="337.508" y="184.388" width="3.14961" height="3.31483" fill="#ff0000"/>
<rect x="340.657" y="184.388" width="3.14961" height="3.31483" fill="#ff0000"/>
<rect x="340.657" y="177.758" width="3.14961" height="3.31483" fill="#ff0000"/>
<rect x="343.807" y="177.758" width="3.14961" height="3.31483" fill="#ff0000"/>
<rect x="353.256" y="177.758" width="3.14961" height="3.31483" fill="#ff0000"/>
<rect x="346.957" y="171.128" width="3.14961" height="3.31483" fill="#ff0000"/>
<rect x="353.256" y="171.128" width="3.14961" height="3.31483" fill="#ff0000"/>
<rect x="359.555" y="171.128" width="3.14961" height="3.31483" fill="#ff0000"/>
<rect x="365.854" y="171.128" width="3.14961" height="3.31483" fill="#ff0000"/>
<rect x="359.555" y="164.499" width="3.14961" height="3.31483" fill="#ff0000"/>
<rect x="365.854" y="164.499" width="3.14961" height="3.31483" fill="#ff0000"/>
<rect x="369.004" y="164.499" width="3.14961" height="3.31483" fill="#ff0000"/>
<rect x="372.154" y="164.499" width="3.14961" height="3.31483" fill="#ff0000"/>
<rect x="375.303" y="164.499" width="3.14961" height="3.31483" fill="#ff0000"/>
<rect x="375.303" y="157.869" width="3.14961" height="3.31483" fill="#ff0000"/>
<rect x="381.602" y="157.869" width="3.14961" height="3.31483" fill="#ff0000"/>
<rect x="384.752" y="157.869" width="3.14961" height="3.31483" fill="#ff0000"/>
<rect x="387.902" y="157.869" width="3.14961" height="3.31483" fill="#ff0000"/>
<rect x="391.051" y="157.869" width="3.14961" height="3.31483" fill="#ff0000"/>
<rect x="391.051" y="151.239" width="3.14961" height="3.31483" fill="#ff0000"/>
<rect x="394.201" y="151.239" width="3.14961" height="3.31483" fill="#ff0000"/>
<rect x="397.35" y="151.239" width="3.14961" height="3.31483" fill="#ff0000"/>
<rect x="400.5" y="151.239" width="3.14961" height="3.31483" fill="#ff0000"/>
<rect x="403.65" y="151.239" width="3.14961" height="3.31483" fill="#ff0000"/>
<rect x="403.65" y="144.61" width="3.14961" height="3.31483" fill="#ff0000"/>
<rect x="406.799" y="144.61" width="3.14961" height="3.31483" fill="#ff0000"/>
<rect x="409.949" y="144.61" width="3.14961" height="3.31483" fill="#ff0000"/>
<rect x="413.098" y="144.61" width="3.14961" height="3.31483" fill="#ff0000"/>
<rect x="416.248" y="144.61" width="3.14961" height="3.31483" fill="#ff0000"/>
<rect x="422.547" y="137.98" width="3.14961" height="3.31483" fill="#ff0000"/>
<rect x="425.697" y="137.98" width="3.14961" height="3.31483" fill="#ff0000"/>
<rect x="428.846" y="137.98" width="3.14961" height="3.31483" fill="#ff0000"/>
<rect x="438.295" y="131.35" width="3.14961" height="3.31483" fill="#ff0000"/>
<rect x="441.445" y="131.35" width="3.14961" height="3.31483" fill="#ff0000"/>
<rect x="444.594" y="131.35" width="3.14961" height="3.31483" fill="#ff0000"/>
<rect x="454.043" y="124.721" width="3.14961" height="3.31483" fill="#ff0000"/>
<path d="M57.1929,436.315h 453.543" fill="none" stroke="black"/>
<text x="394.145" y="468.768" fill="black" font-size="16.0668" font-family="Helvetica">
Neutron number
</text>
<path d="M57.1929,424.68v 11.6351" fill="none" stroke="black"/>
<path d="M72.9409,430.498v 5.81753" fill="none" stroke="black"/>
<path d="M88.689,430.498v 5.81753" fill="none" stroke="black"/>
<path d="M104.437,430.498v 5.81753" fill="none" stroke="black"/>
<path d="M120.185,424.68v 11.6351" fill="none" stroke="black"/>
<path d="M135.933,430.498v 5.81753" fill="none" stroke="black"/>
<path d="M151.681,430.498v 5.81753" fill="none" stroke="black"/>
<path d="M167.429,430.498v 5.81753" fill="none" stroke="black"/>
<path d="M183.177,424.68v 11.6351" fill="none" stroke="black"/>
<path d="M198.925,430.498v 5.81753" fill="none" stroke="black"/>
<path d="M214.673,430.498v 5.81753" fill="none" stroke="black"/>
<path d="M230.421,430.498v 5.81753" fill="none" stroke="black"/>
<path d="M246.169,424.68v 11.6351" fill="none" stroke="black"/>
<path d="M261.917,430.498v 5.81753" fill="none" stroke="black"/>
<path d="M277.665,430.498v 5.81753" fill="none" stroke="black"/>
<path d="M293.413,430.498v 5.81753" fill="none" stroke="black"/>
<path d="M309.161,424.68v 11.6351" fill="none" stroke="black"/>
<path d="M324.909,430.498v 5.81753" fill="none" stroke="black"/>
<path d="M340.657,430.498v 5.81753" fill="none" stroke="black"/>
<path d="M356.406,430.498v 5.81753" fill="none" stroke="black"/>
<path d="M372.154,424.68v 11.6351" fill="none" stroke="black"/>
<path d="M387.902,430.498v 5.81753" fill="none" stroke="black"/>
<path d="M403.65,430.498v 5.81753" fill="none" stroke="black"/>
<path d="M419.398,430.498v 5.81753" fill="none" stroke="black"/>
<path d="M435.146,424.68v 11.6351" fill="none" stroke="black"/>
<path d="M450.894,430.498v 5.81753" fill="none" stroke="black"/>
<path d="M466.642,430.498v 5.81753" fill="none" stroke="black"/>
<path d="M482.39,430.498v 5.81753" fill="none" stroke="black"/>
<path d="M498.138,424.68v 11.6351" fill="none" stroke="black"/>
<path d="M498.138,424.68v 11.6351" fill="none" stroke="black"/>
<text x="51.5837" y="451.74" fill="black" font-size="16.0668" font-family="Helvetica">
0
</text>
<text x="110.681" y="451.74" fill="black" font-size="16.0668" font-family="Helvetica">
20
</text>
<text x="173.784" y="451.74" fill="black" font-size="16.0668" font-family="Helvetica">
40
</text>
<text x="236.887" y="451.74" fill="black" font-size="16.0668" font-family="Helvetica">
60
</text>
<text x="299.991" y="451.74" fill="black" font-size="16.0668" font-family="Helvetica">
80
</text>
<text x="358.086" y="451.74" fill="black" font-size="16.0668" font-family="Helvetica">
100
</text>
<text x="420.188" y="451.74" fill="black" font-size="16.0668" font-family="Helvetica">
120
</text>
<text x="483.291" y="451.74" fill="black" font-size="16.0668" font-family="Helvetica">
140
</text>
<path d="M57.1929,436.315v -387.836" fill="none" stroke="black"/>
<g transform="rotate(-90,28.546,152.25)">
<text x="28.546" y="152.25" fill="black" font-size="16.0668" font-family="Helvetica">
proton number
</text>
</g>
<path d="M70.7992,436.315h -13.6063" fill="none" stroke="black"/>
<path d="M63.9961,419.741h -6.80315" fill="none" stroke="black"/>
<path d="M63.9961,403.167h -6.80315" fill="none" stroke="black"/>
<path d="M63.9961,386.593h -6.80315" fill="none" stroke="black"/>
<path d="M70.7992,370.018h -13.6063" fill="none" stroke="black"/>
<path d="M63.9961,353.444h -6.80315" fill="none" stroke="black"/>
<path d="M63.9961,336.87h -6.80315" fill="none" stroke="black"/>
<path d="M63.9961,320.296h -6.80315" fill="none" stroke="black"/>
<path d="M70.7992,303.722h -13.6063" fill="none" stroke="black"/>
<path d="M63.9961,287.148h -6.80315" fill="none" stroke="black"/>
<path d="M63.9961,270.573h -6.80315" fill="none" stroke="black"/>
<path d="M63.9961,253.999h -6.80315" fill="none" stroke="black"/>
<path d="M70.7992,237.425h -13.6063" fill="none" stroke="black"/>
<path d="M63.9961,220.851h -6.80315" fill="none" stroke="black"/>
<path d="M63.9961,204.277h -6.80315" fill="none" stroke="black"/>
<path d="M63.9961,187.702h -6.80315" fill="none" stroke="black"/>
<path d="M70.7992,171.128h -13.6063" fill="none" stroke="black"/>
<path d="M63.9961,154.554h -6.80315" fill="none" stroke="black"/>
<path d="M63.9961,137.98h -6.80315" fill="none" stroke="black"/>
<path d="M63.9961,121.406h -6.80315" fill="none" stroke="black"/>
<path d="M70.7992,104.832h -13.6063" fill="none" stroke="black"/>
<path d="M70.7992,104.832h -13.6063" fill="none" stroke="black"/>
<path d="M63.9961,88.2575h -6.80315" fill="none" stroke="black"/>
<path d="M63.9961,71.6833h -6.80315" fill="none" stroke="black"/>
<path d="M63.9961,55.1091h -6.80315" fill="none" stroke="black"/>
<text x="44.5722" y="441.724" fill="black" font-size="16.0668" font-family="Helvetica">
0
</text>
<text x="35.5575" y="375.616" fill="black" font-size="16.0668" font-family="Helvetica">
20
</text>
<text x="35.5575" y="309.507" fill="black" font-size="16.0668" font-family="Helvetica">
40
</text>
<text x="35.5575" y="243.399" fill="black" font-size="16.0668" font-family="Helvetica">
60
</text>
<text x="35.5575" y="176.289" fill="black" font-size="16.0668" font-family="Helvetica">
80
</text>
<text x="26.5427" y="110.181" fill="black" font-size="16.0668" font-family="Helvetica">
100
</text>
<rect x="548.694" y="2.05421" width="16.2911" height="26.7048" fill="white"/>
<path d="M548.694,28.759h 16.2911" fill="none" stroke="black"/>
<path d="M564.985,28.759v -26.7048" fill="none" stroke="black"/>
<path d="M564.985,2.05421h -16.2911" fill="none" stroke="black"/>
<path d="M548.694,2.05421v 26.7048" fill="none" stroke="black"/>
<text x="551.403" y="6.00985" fill="black" font-size="4.25664" font-family="Helvetica">
histo
</text>
<path d="M548.694,6.50501h 16.2911" fill="none" stroke="black"/>
<text x="549.4" y="9.01477" fill="black" font-size="2.52108" font-family="Helvetica">
Entries 
</text>
<text x="560.418" y="9.01477" fill="black" font-size="2.52108" font-family="Helvetica">
 66
</text>
<text x="549.4" y="14.023" fill="black" font-size="2.52108" font-family="Helvetica">
Mean x 
</text>
<text x="556.411" y="14.023" fill="black" font-size="2.52108" font-family="Helvetica">
  78.76
</text>
<text x="549.4" y="18.0295" fill="black" font-size="2.52108" font-family="Helvetica">
Mean y 
</text>
<text x="556.411" y="18.0295" fill="black" font-size="2.52108" font-family="Helvetica">
  65.44
</text>
<text x="549.4" y="23.0378" fill="black" font-size="2.52108" font-family="Helvetica">
RMS x 
</text>
<text x="556.411" y="23.0378" fill="black" font-size="2.52108" font-family="Helvetica">
  37.29
</text>
<text x="549.4" y="27.0443" fill="black" font-size="2.52108" font-family="Helvetica">
RMS y 
</text>
<text x="556.411" y="28.046" fill="black" font-size="2.52108" font-family="Helvetica">
  27.22
</text>
<rect x="513.571" y="416.923" width="25.5118" height="19.3918" fill="#6200ff"/>
<rect x="513.571" y="397.532" width="25.5118" height="19.3918" fill="#3300ff"/>
<rect x="513.571" y="378.14" width="25.5118" height="19.3918" fill="#0014ff"/>
<rect x="513.571" y="358.748" width="25.5118" height="19.3918" fill="#0044ff"/>
<rect x="513.571" y="339.356" width="25.5118" height="19.3918" fill="#008bff"/>
<rect x="513.571" y="319.964" width="25.5118" height="19.3918" fill="#00bbff"/>
<rect x="513.571" y="300.573" width="25.5118" height="19.3918" fill="#00fffb"/>
<rect x="513.571" y="281.181" width="25.5118" height="19.3918" fill="#00ffcc"/>
<rect x="513.571" y="261.789" width="25.5118" height="19.3918" fill="#00ff84"/>
<rect x="513.571" y="242.397" width="25.5118" height="19.3918" fill="#00ff55"/>
<rect x="513.571" y="223.005" width="25.5118" height="19.3918" fill="#00ff0d"/>
<rect x="513.571" y="203.614" width="25.5118" height="19.3918" fill="#22ff00"/>
<rect x="513.571" y="184.222" width="25.5118" height="19.3918" fill="#69ff00"/>
<rect x="513.571" y="164.83" width="25.5118" height="19.3918" fill="#99ff00"/>
<rect x="513.571" y="145.438" width="25.5118" height="19.3918" fill="#e0ff00"/>
<rect x="513.571" y="126.047" width="25.5118" height="19.3918" fill="#ffee00"/>
<rect x="513.571" y="106.655" width="25.5118" height="19.3918" fill="#ffa600"/>
<rect x="513.571" y="87.263" width="25.5118" height="19.3918" fill="#ff7700"/>
<rect x="513.571" y="67.8712" width="25.5118" height="19.3918" fill="#ff2f00"/>
<rect x="513.571" y="48.4795" width="25.5118" height="19.3918" fill="#ff0000"/>
<path d="M539.083,436.315v -387.836" fill="none" stroke="black"/>
<path d="M525.476,436.315h 13.6063" fill="none" stroke="black"/>
<path d="M525.476,397.532h 13.6063" fill="none" stroke="black"/>
<path d="M525.476,358.748h 13.6063" fill="none" stroke="black"/>
<path d="M525.476,319.964h 13.6063" fill="none" stroke="black"/>
<path d="M525.476,281.181h 13.6063" fill="none" stroke="black"/>
<path d="M525.476,242.397h 13.6063" fill="none" stroke="black"/>
<path d="M525.476,203.614h 13.6063" fill="none" stroke="black"/>
<path d="M525.476,164.83h 13.6063" fill="none" stroke="black"/>
<path d="M525.476,126.047h 13.6063" fill="none" stroke="black"/>
<path d="M525.476,87.263h 13.6063" fill="none" stroke="black"/>
<path d="M525.476,48.4795h 13.6063" fill="none" stroke="black"/>
<text x="541.386" y="441.724" fill="black" font-size="16.0668" font-family="Helvetica">
0
</text>
<text x="541.386" y="402.66" fill="black" font-size="16.0668" font-family="Helvetica">
0.1
</text>
<text x="541.386" y="364.598" fill="black" font-size="16.0668" font-family="Helvetica">
0.2
</text>
<text x="541.386" y="325.534" fill="black" font-size="16.0668" font-family="Helvetica">
0.3
</text>
<text x="541.386" y="286.47" fill="black" font-size="16.0668" font-family="Helvetica">
0.4
</text>
<text x="541.386" y="248.407" fill="black" font-size="16.0668" font-family="Helvetica">
0.5
</text>
<text x="541.386" y="209.343" fill="black" font-size="16.0668" font-family="Helvetica">
0.6
</text>
<text x="541.386" y="170.279" fill="black" font-size="16.0668" font-family="Helvetica">
0.7
</text>
<text x="541.386" y="131.215" fill="black" font-size="16.0668" font-family="Helvetica">
0.8
</text>
<text x="541.386" y="93.1527" fill="black" font-size="16.0668" font-family="Helvetica">
0.9
</text>
<text x="541.386" y="55.0903" fill="black" font-size="16.0668" font-family="Helvetica">
1
</text>
<rect x="548.694" y="2.05421" width="16.2911" height="26.7048" fill="white"/>
<path d="M548.694,28.759h 16.2911" fill="none" stroke="black"/>
<path d="M564.985,28.759v -26.7048" fill="none" stroke="black"/>
<path d="M564.985,2.05421h -16.2911" fill="none" stroke="black"/>
<path d="M548.694,2.05421v 26.7048" fill="none" stroke="black"/>
<text x="551.403" y="6.00985" fill="black" font-size="4.25664" font-family="Helvetica">
histo
</text>
<path d="M548.694,6.50501h 16.2911" fill="none" stroke="black"/>
<text x="549.4" y="9.01477" fill="black" font-size="2.52108" font-family="Helvetica">
Entries 
</text>
<text x="560.418" y="9.01477" fill="black" font-size="2.52108" font-family="Helvetica">
 66
</text>
<text x="549.4" y="14.023" fill="black" font-size="2.52108" font-family="Helvetica">
Mean x 
</text>
<text x="556.411" y="14.023" fill="black" font-size="2.52108" font-family="Helvetica">
  78.76
</text>
<text x="549.4" y="18.0295" fill="black" font-size="2.52108" font-family="Helvetica">
Mean y 
</text>
<text x="556.411" y="18.0295" fill="black" font-size="2.52108" font-family="Helvetica">
  65.44
</text>
<text x="549.4" y="23.0378" fill="black" font-size="2.52108" font-family="Helvetica">
RMS x 
</text>
<text x="556.411" y="23.0378" fill="black" font-size="2.52108" font-family="Helvetica">
  37.29
</text>
<text x="549.4" y="27.0443" fill="black" font-size="2.52108" font-family="Helvetica">
RMS y 
</text>
<text x="556.411" y="28.046" fill="black" font-size="2.52108" font-family="Helvetica">
  27.22
</text></svg>
