<?xml version="1.0" standalone="no"?>
<svg width="567.429" height="352.497" viewBox="0 0 567.429 352.497" xmlns="http://www.w3.org/2000/svg">
<title>
/home/qiliqiang/Desktop/ex3.svg
</title>
<desc>
Creator: ROOT Version 5.34/30
CreationDate: Thu Jul  6 15:07:37 2017</desc>
<defs>
</defs>
<rect x="0.5" y="0" width="566.929" height="351.997" fill="white"/>
<rect x="57.1929" y="35.1997" width="453.543" height="281.598" fill="white"/>
<rect x="57.1929" y="35.1997" width="453.543" height="281.598" fill="none" stroke="black"/>
<rect x="57.1929" y="35.1997" width="453.543" height="281.598" fill="white"/>
<rect x="57.1929" y="35.1997" width="453.543" height="281.598" fill="none" stroke="black"/>
<path d="M57.1929,316.798h 453.543" fill="none" stroke="black"/>
<path d="M89.2616,308.35v 8.44794" fill="none" stroke="black"/>
<path d="M100.715,312.574v 4.22397" fill="none" stroke="black"/>
<path d="M112.168,312.574v 4.22397" fill="none" stroke="black"/>
<path d="M123.621,312.574v 4.22397" fill="none" stroke="black"/>
<path d="M135.074,312.574v 4.22397" fill="none" stroke="black"/>
<path d="M146.527,308.35v 8.44794" fill="none" stroke="black"/>
<path d="M157.98,312.574v 4.22397" fill="none" stroke="black"/>
<path d="M169.433,312.574v 4.22397" fill="none" stroke="black"/>
<path d="M180.887,312.574v 4.22397" fill="none" stroke="black"/>
<path d="M192.34,312.574v 4.22397" fill="none" stroke="black"/>
<path d="M203.793,308.35v 8.44794" fill="none" stroke="black"/>
<path d="M215.246,312.574v 4.22397" fill="none" stroke="black"/>
<path d="M226.699,312.574v 4.22397" fill="none" stroke="black"/>
<path d="M238.152,312.574v 4.22397" fill="none" stroke="black"/>
<path d="M249.605,312.574v 4.22397" fill="none" stroke="black"/>
<path d="M261.058,308.35v 8.44794" fill="none" stroke="black"/>
<path d="M272.511,312.574v 4.22397" fill="none" stroke="black"/>
<path d="M283.965,312.574v 4.22397" fill="none" stroke="black"/>
<path d="M295.418,312.574v 4.22397" fill="none" stroke="black"/>
<path d="M306.871,312.574v 4.22397" fill="none" stroke="black"/>
<path d="M318.324,308.35v 8.44794" fill="none" stroke="black"/>
<path d="M329.777,312.574v 4.22397" fill="none" stroke="black"/>
<path d="M341.23,312.574v 4.22397" fill="none" stroke="black"/>
<path d="M352.683,312.574v 4.22397" fill="none" stroke="black"/>
<path d="M364.136,312.574v 4.22397" fill="none" stroke="black"/>
<path d="M375.589,308.35v 8.44794" fill="none" stroke="black"/>
<path d="M387.043,312.574v 4.22397" fill="none" stroke="black"/>
<path d="M398.496,312.574v 4.22397" fill="none" stroke="black"/>
<path d="M409.949,312.574v 4.22397" fill="none" stroke="black"/>
<path d="M421.402,312.574v 4.22397" fill="none" stroke="black"/>
<path d="M432.855,308.35v 8.44794" fill="none" stroke="black"/>
<path d="M444.308,312.574v 4.22397" fill="none" stroke="black"/>
<path d="M455.761,312.574v 4.22397" fill="none" stroke="black"/>
<path d="M467.214,312.574v 4.22397" fill="none" stroke="black"/>
<path d="M478.668,312.574v 4.22397" fill="none" stroke="black"/>
<path d="M490.121,308.35v 8.44794" fill="none" stroke="black"/>
<path d="M89.2616,308.35v 8.44794" fill="none" stroke="black"/>
<path d="M77.8085,312.574v 4.22397" fill="none" stroke="black"/>
<path d="M66.3554,312.574v 4.22397" fill="none" stroke="black"/>
<path d="M490.121,308.35v 8.44794" fill="none" stroke="black"/>
<path d="M501.574,312.574v 4.22397" fill="none" stroke="black"/>
<text x="82.6327" y="327.998" fill="black" font-size="11.8027" font-family="Helvetica">
50
</text>
<text x="139.699" y="327.998" fill="black" font-size="11.8027" font-family="Helvetica">
60
</text>
<text x="197.299" y="327.998" fill="black" font-size="11.8027" font-family="Helvetica">
70
</text>
<text x="254.365" y="327.998" fill="black" font-size="11.8027" font-family="Helvetica">
80
</text>
<text x="311.431" y="327.998" fill="black" font-size="11.8027" font-family="Helvetica">
90
</text>
<text x="365.831" y="327.998" fill="black" font-size="11.8027" font-family="Helvetica">
100
</text>
<text x="422.897" y="327.998" fill="black" font-size="11.8027" font-family="Helvetica">
110
</text>
<text x="480.496" y="327.998" fill="black" font-size="11.8027" font-family="Helvetica">
120
</text>
<path d="M57.1929,316.798v -281.598" fill="none" stroke="black"/>
<path d="M70.7992,271.49h -13.6063" fill="none" stroke="black"/>
<path d="M63.9961,259.539h -6.80315" fill="none" stroke="black"/>
<path d="M63.9961,247.587h -6.80315" fill="none" stroke="black"/>
<path d="M63.9961,235.636h -6.80315" fill="none" stroke="black"/>
<path d="M70.7992,223.685h -13.6063" fill="none" stroke="black"/>
<path d="M63.9961,211.733h -6.80315" fill="none" stroke="black"/>
<path d="M63.9961,199.782h -6.80315" fill="none" stroke="black"/>
<path d="M63.9961,187.831h -6.80315" fill="none" stroke="black"/>
<path d="M70.7992,175.879h -13.6063" fill="none" stroke="black"/>
<path d="M63.9961,163.928h -6.80315" fill="none" stroke="black"/>
<path d="M63.9961,151.976h -6.80315" fill="none" stroke="black"/>
<path d="M63.9961,140.025h -6.80315" fill="none" stroke="black"/>
<path d="M70.7992,128.074h -13.6063" fill="none" stroke="black"/>
<path d="M63.9961,116.122h -6.80315" fill="none" stroke="black"/>
<path d="M63.9961,104.171h -6.80315" fill="none" stroke="black"/>
<path d="M63.9961,92.2197h -6.80315" fill="none" stroke="black"/>
<path d="M70.7992,80.2683h -13.6063" fill="none" stroke="black"/>
<path d="M70.7992,271.49h -13.6063" fill="none" stroke="black"/>
<path d="M63.9961,283.441h -6.80315" fill="none" stroke="black"/>
<path d="M63.9961,295.393h -6.80315" fill="none" stroke="black"/>
<path d="M63.9961,307.344h -6.80315" fill="none" stroke="black"/>
<path d="M70.7992,80.2683h -13.6063" fill="none" stroke="black"/>
<path d="M63.9961,68.317h -6.80315" fill="none" stroke="black"/>
<path d="M63.9961,56.3656h -6.80315" fill="none" stroke="black"/>
<path d="M63.9961,44.4142h -6.80315" fill="none" stroke="black"/>
<text x="31.4331" y="275.731" fill="black" font-size="11.8027" font-family="Helvetica">
0.02
</text>
<text x="25.0332" y="275.731" fill="black" font-size="11.8027" font-family="Times">
&#8722;
</text>
<text x="47.433" y="227.732" fill="black" font-size="11.8027" font-family="Helvetica">
0
</text>
<text x="31.4331" y="179.732" fill="black" font-size="11.8027" font-family="Helvetica">
0.02
</text>
<text x="30.8998" y="132.266" fill="black" font-size="11.8027" font-family="Helvetica">
0.04
</text>
<text x="31.4331" y="84.266" fill="black" font-size="11.8027" font-family="Helvetica">
0.06
</text>
<g stroke="black" stroke-width="1" fill="none">
<line x1="76.8085" y1="224.163" x2="77.8085" y2="224.163"/>
<line x1="82.5351" y1="243.046" x2="83.5351" y2="243.046"/>
<line x1="88.2616" y1="226.553" x2="89.2616" y2="226.553"/>
<line x1="93.9882" y1="187.592" x2="94.9882" y2="187.592"/>
<line x1="99.7148" y1="173.011" x2="100.715" y2="173.011"/>
<line x1="128.348" y1="156.757" x2="129.348" y2="156.757"/>
<line x1="134.074" y1="171.099" x2="135.074" y2="171.099"/>
<line x1="139.801" y1="189.265" x2="140.801" y2="189.265"/>
<line x1="145.527" y1="47.9996" x2="146.527" y2="47.9996"/>
<line x1="151.254" y1="169.186" x2="152.254" y2="169.186"/>
<line x1="156.98" y1="182.333" x2="157.98" y2="182.333"/>
</g>
<g stroke="black" stroke-width="1" fill="none">
<line x1="88.2616" y1="226.792" x2="89.2616" y2="226.792"/>
<line x1="93.9882" y1="188.309" x2="94.9882" y2="188.309"/>
<line x1="99.7148" y1="172.533" x2="100.715" y2="172.533"/>
</g>
<g stroke="black" stroke-width="1" fill="none">
<line x1="81.4018" y1="243.524" x2="85.6684" y2="243.524"/><line x1="83.5351" y1="241.391" x2="83.5351" y2="245.657"/>
<line x1="87.1283" y1="231.094" x2="91.395" y2="231.094"/><line x1="89.2616" y1="228.961" x2="89.2616" y2="233.228"/>
<line x1="104.308" y1="200.021" x2="108.575" y2="200.021"/><line x1="106.441" y1="197.888" x2="106.441" y2="202.154"/>
<line x1="110.035" y1="171.338" x2="114.301" y2="171.338"/><line x1="112.168" y1="169.204" x2="112.168" y2="173.471"/>
<line x1="115.761" y1="215.797" x2="120.028" y2="215.797"/><line x1="117.894" y1="213.663" x2="117.894" y2="217.93"/>
<line x1="121.488" y1="173.25" x2="125.754" y2="173.25"/><line x1="123.621" y1="171.117" x2="123.621" y2="175.383"/>
<line x1="150.12" y1="168.469" x2="154.387" y2="168.469"/><line x1="152.254" y1="166.336" x2="152.254" y2="170.603"/>
<line x1="155.847" y1="198.826" x2="160.114" y2="198.826"/><line x1="157.98" y1="196.692" x2="157.98" y2="200.959"/>
<line x1="161.574" y1="190.221" x2="165.84" y2="190.221"/><line x1="163.707" y1="188.087" x2="163.707" y2="192.354"/>
<line x1="167.3" y1="199.543" x2="171.567" y2="199.543"/><line x1="169.433" y1="197.41" x2="169.433" y2="201.676"/>
</g>
<g stroke="black" stroke-width="1" fill="none">
<circle cx="117.894" cy="197.631" r="2.13332"/>
<circle cx="123.621" cy="177.552" r="2.13332"/>
<circle cx="129.348" cy="205.758" r="2.13332"/>
<circle cx="135.074" cy="175.162" r="2.13332"/>
</g>
<g stroke="black" stroke-width="1" fill="black">
<circle cx="140.801" cy="206.475" r="0.0426663"/>
<circle cx="146.527" cy="183.528" r="0.0426663"/>
</g>
<g stroke="black" stroke-width="1" fill="black">
<circle cx="129.348" cy="203.845" r="0.0853327"/>
<circle cx="135.074" cy="187.831" r="0.0853327"/>
</g>
<g stroke="black" stroke-width="1" fill="black">
<circle cx="117.894" cy="189.982" r="2.13332"/>
<circle cx="123.621" cy="182.811" r="2.13332"/>
<circle cx="129.348" cy="201.216" r="2.13332"/>
<circle cx="135.074" cy="183.767" r="2.13332"/>
<circle cx="140.801" cy="203.845" r="2.13332"/>
<circle cx="146.527" cy="197.153" r="2.13332"/>
<circle cx="152.254" cy="217.948" r="2.13332"/>
<circle cx="157.98" cy="184.484" r="2.13332"/>
<circle cx="163.707" cy="204.562" r="2.13332"/>
<circle cx="169.433" cy="200.021" r="2.13332"/>
<circle cx="175.16" cy="207.431" r="2.13332"/>
<circle cx="180.887" cy="205.758" r="2.13332"/>
<circle cx="186.613" cy="217.231" r="2.13332"/>
<circle cx="192.34" cy="202.411" r="2.13332"/>
<circle cx="198.066" cy="239.699" r="2.13332"/>
<circle cx="203.793" cy="197.392" r="2.13332"/>
</g>
<g stroke="black" stroke-width="1" fill="black">
<circle cx="123.621" cy="193.328" r="2.13332"/>
<circle cx="129.348" cy="208.387" r="2.13332"/>
<circle cx="135.074" cy="195.24" r="2.13332"/>
<circle cx="140.801" cy="205.28" r="2.13332"/>
<circle cx="146.527" cy="196.436" r="2.13332"/>
<circle cx="152.254" cy="210.06" r="2.13332"/>
<circle cx="157.98" cy="196.436" r="2.13332"/>
<circle cx="163.707" cy="211.494" r="2.13332"/>
<circle cx="169.433" cy="199.065" r="2.13332"/>
<circle cx="175.16" cy="212.689" r="2.13332"/>
<circle cx="180.887" cy="199.782" r="2.13332"/>
<circle cx="186.613" cy="210.538" r="2.13332"/>
<circle cx="192.34" cy="204.323" r="2.13332"/>
<circle cx="198.066" cy="213.406" r="2.13332"/>
<circle cx="203.793" cy="206.475" r="2.13332"/>
<circle cx="209.519" cy="215.08" r="2.13332"/>
<circle cx="215.246" cy="208.865" r="2.13332"/>
<circle cx="220.972" cy="216.753" r="2.13332"/>
<circle cx="226.699" cy="209.343" r="2.13332"/>
<circle cx="232.426" cy="216.275" r="2.13332"/>
<circle cx="238.152" cy="212.928" r="2.13332"/>
<circle cx="243.879" cy="216.036" r="2.13332"/>
<circle cx="249.605" cy="216.275" r="2.13332"/>
</g>
<g stroke="black" stroke-width="1" fill="black">
<circle cx="140.801" cy="205.997" r="2.13332"/>
<circle cx="146.527" cy="198.348" r="2.13332"/>
<circle cx="152.254" cy="211.494" r="2.13332"/>
<circle cx="157.98" cy="196.914" r="2.13332"/>
<circle cx="163.707" cy="207.67" r="2.13332"/>
<circle cx="169.433" cy="203.606" r="2.13332"/>
<circle cx="175.16" cy="211.972" r="2.13332"/>
<circle cx="180.887" cy="199.304" r="2.13332"/>
<circle cx="186.613" cy="211.255" r="2.13332"/>
<circle cx="192.34" cy="201.933" r="2.13332"/>
<circle cx="198.066" cy="212.928" r="2.13332"/>
<circle cx="203.793" cy="204.323" r="2.13332"/>
<circle cx="209.519" cy="212.45" r="2.13332"/>
<circle cx="215.246" cy="207.431" r="2.13332"/>
<circle cx="220.972" cy="216.275" r="2.13332"/>
<circle cx="226.699" cy="206.953" r="2.13332"/>
<circle cx="232.426" cy="216.514" r="2.13332"/>
<circle cx="238.152" cy="207.431" r="2.13332"/>
<circle cx="243.879" cy="215.558" r="2.13332"/>
<circle cx="249.605" cy="210.777" r="2.13332"/>
<circle cx="255.332" cy="220.577" r="2.13332"/>
<circle cx="261.058" cy="203.367" r="2.13332"/>
<circle cx="266.785" cy="209.582" r="2.13332"/>
<circle cx="272.511" cy="220.099" r="2.13332"/>
</g>
<g stroke="black" stroke-width="1" fill="black">
<circle cx="209.519" cy="218.426" r="2.13332"/>
<circle cx="215.246" cy="207.909" r="2.13332"/>
<circle cx="220.972" cy="218.665" r="2.13332"/>
<circle cx="226.699" cy="208.865" r="2.13332"/>
</g>
<g stroke="black" stroke-width="1" fill="black">
<circle cx="220.972" cy="217.709" r="2.13332"/>
<circle cx="226.699" cy="217.231" r="2.13332"/>
<circle cx="232.426" cy="223.446" r="2.13332"/>
<circle cx="238.152" cy="213.406" r="2.13332"/>
<circle cx="243.879" cy="226.075" r="2.13332"/>
<circle cx="249.605" cy="211.494" r="2.13332"/>
<circle cx="255.332" cy="230.377" r="2.13332"/>
<circle cx="261.058" cy="207.431" r="2.13332"/>
<circle cx="278.238" cy="192.611" r="2.13332"/>
<circle cx="283.965" cy="179.465" r="2.13332"/>
<circle cx="289.691" cy="192.611" r="2.13332"/>
<circle cx="295.418" cy="186.157" r="2.13332"/>
<circle cx="301.144" cy="193.089" r="2.13332"/>
<circle cx="306.871" cy="188.548" r="2.13332"/>
<circle cx="312.597" cy="199.543" r="2.13332"/>
<circle cx="318.324" cy="190.221" r="2.13332"/>
</g>
<g stroke="black" stroke-width="1" fill="black">
<circle cx="169.433" cy="208.387" r="2.13332"/>
<circle cx="175.16" cy="219.143" r="2.13332"/>
<circle cx="180.887" cy="258.583" r="2.13332"/>
<circle cx="186.613" cy="222.729" r="2.13332"/>
<circle cx="192.34" cy="212.45" r="2.13332"/>
<circle cx="198.066" cy="221.772" r="2.13332"/>
<circle cx="203.793" cy="211.255" r="2.13332"/>
<circle cx="209.519" cy="225.597" r="2.13332"/>
<circle cx="215.246" cy="208.387" r="2.13332"/>
<circle cx="220.972" cy="227.27" r="2.13332"/>
<circle cx="226.699" cy="209.343" r="2.13332"/>
<circle cx="232.426" cy="221.055" r="2.13332"/>
<circle cx="238.152" cy="215.558" r="2.13332"/>
<circle cx="243.879" cy="229.421" r="2.13332"/>
<circle cx="249.605" cy="214.363" r="2.13332"/>
<circle cx="255.332" cy="226.075" r="2.13332"/>
<circle cx="261.058" cy="215.08" r="2.13332"/>
<circle cx="266.785" cy="225.597" r="2.13332"/>
<circle cx="272.511" cy="207.192" r="2.13332"/>
<circle cx="278.238" cy="193.328" r="2.13332"/>
<circle cx="283.965" cy="183.767" r="2.13332"/>
<circle cx="289.691" cy="192.133" r="2.13332"/>
<circle cx="295.418" cy="191.416" r="2.13332"/>
<circle cx="301.144" cy="191.177" r="2.13332"/>
<circle cx="306.871" cy="190.221" r="2.13332"/>
<circle cx="312.597" cy="202.172" r="2.13332"/>
<circle cx="318.324" cy="191.894" r="2.13332"/>
<circle cx="324.05" cy="201.455" r="2.13332"/>
</g>
<g stroke="black" stroke-width="1" fill="black">
<circle cx="175.16" cy="203.606" r="2.13332"/>
<circle cx="180.887" cy="229.182" r="2.13332"/>
<circle cx="186.613" cy="227.987" r="2.13332"/>
<circle cx="192.34" cy="211.733" r="2.13332"/>
<circle cx="198.066" cy="225.597" r="2.13332"/>
<circle cx="203.793" cy="213.167" r="2.13332"/>
<circle cx="209.519" cy="227.748" r="2.13332"/>
<circle cx="215.246" cy="211.494" r="2.13332"/>
<circle cx="220.972" cy="225.358" r="2.13332"/>
<circle cx="226.699" cy="215.319" r="2.13332"/>
<circle cx="232.426" cy="225.358" r="2.13332"/>
<circle cx="238.152" cy="217.231" r="2.13332"/>
<circle cx="243.879" cy="227.748" r="2.13332"/>
<circle cx="249.605" cy="215.08" r="2.13332"/>
<circle cx="255.332" cy="230.377" r="2.13332"/>
<circle cx="261.058" cy="214.124" r="2.13332"/>
<circle cx="266.785" cy="228.465" r="2.13332"/>
<circle cx="272.511" cy="208.387" r="2.13332"/>
<circle cx="278.238" cy="191.416" r="2.13332"/>
<circle cx="283.965" cy="182.811" r="2.13332"/>
<circle cx="289.691" cy="194.284" r="2.13332"/>
<circle cx="295.418" cy="188.787" r="2.13332"/>
<circle cx="301.144" cy="191.655" r="2.13332"/>
<circle cx="306.871" cy="188.07" r="2.13332"/>
<circle cx="312.597" cy="197.631" r="2.13332"/>
<circle cx="318.324" cy="191.655" r="2.13332"/>
</g>
<g stroke="black" stroke-width="1" fill="black">
<circle cx="266.785" cy="229.182" r="2.13332"/>
<circle cx="272.511" cy="205.28" r="2.13332"/>
</g>
<g stroke="black" stroke-width="1" fill="black">
<circle cx="232.426" cy="233.724" r="2.13332"/>
<circle cx="238.152" cy="217.709" r="2.13332"/>
<circle cx="243.879" cy="231.094" r="2.13332"/>
<circle cx="249.605" cy="213.406" r="2.13332"/>
<circle cx="255.332" cy="234.919" r="2.13332"/>
<circle cx="261.058" cy="217.709" r="2.13332"/>
<circle cx="266.785" cy="234.202" r="2.13332"/>
<circle cx="272.511" cy="207.909" r="2.13332"/>
<circle cx="278.238" cy="192.372" r="2.13332"/>
<circle cx="283.965" cy="183.767" r="2.13332"/>
<circle cx="289.691" cy="196.436" r="2.13332"/>
<circle cx="295.418" cy="185.201" r="2.13332"/>
</g>
<g stroke="black" stroke-width="1" fill="black">
<polygon points=" 243.879, 231.829 246.012, 236.096 241.745, 236.096"/>
<polygon points=" 249.605, 219.4 251.739, 223.667 247.472, 223.667"/>
<polygon points=" 255.332, 233.025 257.465, 237.291 253.198, 237.291"/>
<polygon points=" 261.058, 221.312 263.192, 225.579 258.925, 225.579"/>
<polygon points=" 266.785, 230.873 268.918, 235.14 264.652, 235.14"/>
<polygon points=" 272.511, 210.795 274.645, 215.062 270.378, 215.062"/>
<polygon points=" 278.238, 191.195 280.371, 195.461 276.105, 195.461"/>
<polygon points=" 283.965, 184.024 286.098, 188.291 281.831, 188.291"/>
<polygon points=" 289.691, 201.473 291.824, 205.74 287.558, 205.74"/>
<polygon points=" 295.418, 185.697 297.551, 189.964 293.284, 189.964"/>
<polygon points=" 301.144, 199.561 303.278, 203.827 299.011, 203.827"/>
<polygon points=" 306.871, 161.077 309.004, 165.344 304.737, 165.344"/>
<polygon points=" 312.597, 182.59 314.731, 186.857 310.464, 186.857"/>
<polygon points=" 318.324, 157.253 320.457, 161.52 316.191, 161.52"/>
<polygon points=" 324.05, 196.214 326.184, 200.481 321.917, 200.481"/>
<polygon points=" 329.777, 190.956 331.91, 195.222 327.644, 195.222"/>
</g>
<g stroke="black" stroke-width="1" fill="black">
<polygon points=" 230.292, 217.488 234.559, 217.488 232.426, 221.754"/>
<polygon points=" 236.019, 226.093 240.285, 226.093 238.152, 230.359"/>
<polygon points=" 241.745, 237.088 246.012, 237.088 243.879, 241.355"/>
<polygon points=" 247.472, 221.073 251.739, 221.073 249.605, 225.34"/>
<polygon points=" 253.198, 243.064 257.465, 243.064 255.332, 247.33"/>
<polygon points=" 258.925, 214.62 263.192, 214.62 261.058, 218.886"/>
<polygon points=" 264.652, 227.288 268.918, 227.288 266.785, 231.555"/>
<polygon points=" 270.378, 209.361 274.645, 209.361 272.511, 213.628"/>
<polygon points=" 276.105, 191.434 280.371, 191.434 278.238, 195.701"/>
<polygon points=" 281.831, 185.936 286.098, 185.936 283.965, 190.203"/>
<polygon points=" 287.558, 195.975 291.824, 195.975 289.691, 200.242"/>
<polygon points=" 293.284, 184.024 297.551, 184.024 295.418, 188.291"/>
<polygon points=" 299.011, 199.083 303.278, 199.083 301.144, 203.349"/>
<polygon points=" 304.737, 167.531 309.004, 167.531 306.871, 171.798"/>
<polygon points=" 310.464, 91.9986 314.731, 91.9986 312.597, 96.2652"/>
<polygon points=" 316.191, 209.361 320.457, 209.361 318.324, 213.628"/>
<polygon points=" 321.917, 191.912 326.184, 191.912 324.05, 196.179"/>
<polygon points=" 327.644, 225.854 331.91, 225.854 329.777, 230.12"/>
<polygon points=" 333.37, 211.273 337.637, 211.273 335.504, 215.54"/>
<polygon points=" 339.097, 200.756 343.363, 200.756 341.23, 205.023"/>
<polygon points=" 344.823, 206.732 349.09, 206.732 346.957, 210.998"/>
<polygon points=" 350.55, 201.234 354.817, 201.234 352.683, 205.501"/>
</g>
<g stroke="black" stroke-width="1" fill="none">
<circle cx="272.511" cy="220.099" r="2.13332"/>
<circle cx="324.05" cy="200.738" r="2.13332"/>
<circle cx="329.777" cy="199.543" r="2.13332"/>
<circle cx="335.504" cy="216.753" r="2.13332"/>
<circle cx="341.23" cy="195.001" r="2.13332"/>
</g>
<g stroke="black" stroke-width="1" fill="none">
<rect x="276.105" y="200.039" width="4.26663" height="4.26663"/>
<rect x="281.831" y="189.044" width="4.26663" height="4.26663"/>
<rect x="287.558" y="204.341" width="4.26663" height="4.26663"/>
<rect x="293.284" y="190.239" width="4.26663" height="4.26663"/>
<rect x="299.011" y="207.449" width="4.26663" height="4.26663"/>
<rect x="304.737" y="159.165" width="4.26663" height="4.26663"/>
<rect x="310.464" y="130.004" width="4.26663" height="4.26663"/>
<rect x="316.191" y="207.688" width="4.26663" height="4.26663"/>
</g>
<g stroke="black" stroke-width="1" fill="none">
<polygon points=" 278.238, 194.78 280.371, 199.047 276.105, 199.047"/>
<polygon points=" 283.965, 188.327 286.098, 192.593 281.831, 192.593"/>
<polygon points=" 289.691, 198.844 291.824, 203.11 287.558, 203.11"/>
<polygon points=" 295.418, 185.936 297.551, 190.203 293.284, 190.203"/>
<polygon points=" 301.144, 201.234 303.278, 205.501 299.011, 205.501"/>
<polygon points=" 306.871, 172.312 309.004, 176.578 304.737, 176.578"/>
<polygon points=" 312.597, 169.921 314.731, 174.188 310.464, 174.188"/>
<polygon points=" 318.324, 182.112 320.457, 186.378 316.191, 186.378"/>
<polygon points=" 324.05, 200.756 326.184, 205.023 321.917, 205.023"/>
<polygon points=" 329.777, 196.214 331.91, 200.481 327.644, 200.481"/>
<polygon points=" 335.504, 219.161 337.637, 223.428 333.37, 223.428"/>
<polygon points=" 341.23, 191.434 343.363, 195.701 339.097, 195.701"/>
<polygon points=" 346.957, 218.922 349.09, 223.189 344.823, 223.189"/>
<polygon points=" 352.683, 194.78 354.817, 199.047 350.55, 199.047"/>
<polygon points=" 358.41, 215.576 360.543, 219.842 356.276, 219.842"/>
<polygon points=" 364.136, 193.107 366.27, 197.374 362.003, 197.374"/>
</g>
<g stroke="black" stroke-width="1" fill="none">
<polygon points=" 289.691, 169.921 291.113, 172.055 289.691, 174.188 288.269, 172.055"/>
<polygon points=" 295.418, 186.653 296.84, 188.787 295.418, 190.92 293.995, 188.787"/>
<polygon points=" 301.144, 198.605 302.566, 200.738 301.144, 202.871 299.722, 200.738"/>
<polygon points=" 306.871, 168.965 308.293, 171.099 306.871, 173.232 305.449, 171.099"/>
<polygon points=" 312.597, 202.429 314.02, 204.562 312.597, 206.696 311.175, 204.562"/>
<polygon points=" 318.324, 130.96 319.746, 133.093 318.324, 135.227 316.902, 133.093"/>
<polygon points=" 324.05, 212.946 325.473, 215.08 324.05, 217.213 322.628, 215.08"/>
<polygon points=" 329.777, 196.692 331.199, 198.826 329.777, 200.959 328.355, 198.826"/>
<polygon points=" 335.504, 224.659 336.926, 226.792 335.504, 228.925 334.081, 226.792"/>
<polygon points=" 341.23, 192.151 342.652, 194.284 341.23, 196.418 339.808, 194.284"/>
<polygon points=" 346.957, 213.902 348.379, 216.036 346.957, 218.169 345.534, 216.036"/>
<polygon points=" 352.683, 200.039 354.105, 202.172 352.683, 204.305 351.261, 202.172"/>
</g>
<g stroke="black" stroke-width="1" fill="none">
<polygon points=" 369.152, 212.456 369.152, 211.034 370.574, 211.034 370.574, 212.456 371.996, 212.456 371.996, 213.879 370.574, 213.879 370.574, 215.301 369.152, 215.301 369.152, 213.879 367.73, 213.879 367.73, 212.456"/>
<polygon points=" 374.878, 202.895 374.878, 201.473 376.301, 201.473 376.301, 202.895 377.723, 202.895 377.723, 204.317 376.301, 204.317 376.301, 205.74 374.878, 205.74 374.878, 204.317 373.456, 204.317 373.456, 202.895"/>
</g>
<g stroke="black" stroke-width="1" fill="black">
<polygon points=" 289.691, 199.047 290.17, 197.573 291.72, 197.573 290.466, 196.662 290.945, 195.188 289.691, 196.099 288.437, 195.188 288.916, 196.662 287.662, 197.573 289.212, 197.573"/>
<polygon points=" 306.871, 186.617 307.35, 185.143 308.9, 185.143 307.646, 184.232 308.125, 182.758 306.871, 183.669 305.617, 182.758 306.096, 184.232 304.842, 185.143 306.392, 185.143"/>
<polygon points=" 312.597, 203.11 313.076, 201.636 314.626, 201.636 313.372, 200.725 313.851, 199.251 312.597, 200.162 311.343, 199.251 311.822, 200.725 310.568, 201.636 312.118, 201.636"/>
<polygon points=" 318.324, 188.291 318.803, 186.817 320.353, 186.817 319.099, 185.906 319.578, 184.431 318.324, 185.342 317.07, 184.431 317.549, 185.906 316.295, 186.817 317.845, 186.817"/>
<polygon points=" 324.05, 199.047 324.529, 197.573 326.079, 197.573 324.825, 196.662 325.304, 195.188 324.05, 196.099 322.797, 195.188 323.275, 196.662 322.022, 197.573 323.572, 197.573"/>
<polygon points=" 329.777, 199.047 330.256, 197.573 331.806, 197.573 330.552, 196.662 331.031, 195.188 329.777, 196.099 328.523, 195.188 329.002, 196.662 327.748, 197.573 329.298, 197.573"/>
<polygon points=" 335.504, 202.632 335.983, 201.158 337.532, 201.158 336.279, 200.247 336.758, 198.773 335.504, 199.684 334.25, 198.773 334.729, 200.247 333.475, 201.158 335.025, 201.158"/>
<polygon points=" 341.23, 193.31 341.709, 191.836 343.259, 191.836 342.005, 190.925 342.484, 189.451 341.23, 190.362 339.976, 189.451 340.455, 190.925 339.201, 191.836 340.751, 191.836"/>
<polygon points=" 346.957, 212.193 347.436, 210.719 348.986, 210.719 347.732, 209.808 348.211, 208.334 346.957, 209.245 345.703, 208.334 346.182, 209.808 344.928, 210.719 346.478, 210.719"/>
<polygon points=" 352.683, 202.393 353.162, 200.919 354.712, 200.919 353.458, 200.008 353.937, 198.534 352.683, 199.445 351.429, 198.534 351.908, 200.008 350.654, 200.919 352.204, 200.919"/>
<polygon points=" 358.41, 215.779 358.889, 214.305 360.439, 214.305 359.185, 213.394 359.664, 211.92 358.41, 212.831 357.156, 211.92 357.635, 213.394 356.381, 214.305 357.931, 214.305"/>
<polygon points=" 364.136, 205.979 364.615, 204.505 366.165, 204.505 364.911, 203.594 365.39, 202.119 364.136, 203.031 362.882, 202.119 363.361, 203.594 362.107, 204.505 363.657, 204.505"/>
<polygon points=" 369.863, 216.018 370.342, 214.544 371.892, 214.544 370.638, 213.633 371.117, 212.159 369.863, 213.07 368.609, 212.159 369.088, 213.633 367.834, 214.544 369.384, 214.544"/>
<polygon points=" 375.589, 205.262 376.068, 203.788 377.618, 203.788 376.364, 202.876 376.843, 201.402 375.589, 202.313 374.336, 201.402 374.815, 202.876 373.561, 203.788 375.111, 203.788"/>
<polygon points=" 381.316, 214.584 381.795, 213.11 383.345, 213.11 382.091, 212.199 382.57, 210.724 381.316, 211.635 380.062, 210.724 380.541, 212.199 379.287, 213.11 380.837, 213.11"/>
<polygon points=" 387.043, 205.501 387.522, 204.027 389.071, 204.027 387.818, 203.115 388.297, 201.641 387.043, 202.552 385.789, 201.641 386.268, 203.115 385.014, 204.027 386.564, 204.027"/>
<polygon points=" 392.769, 220.32 393.248, 218.846 394.798, 218.846 393.544, 217.935 394.023, 216.461 392.769, 217.372 391.515, 216.461 391.994, 217.935 390.74, 218.846 392.29, 218.846"/>
</g>
<g stroke="black" stroke-width="1" fill="none">
<polygon points=" 289.691, 186.378 290.17, 184.904 291.72, 184.904 290.466, 183.993 290.945, 182.519 289.691, 183.43 288.437, 182.519 288.916, 183.993 287.662, 184.904 289.212, 184.904"/>
<polygon points=" 295.418, 183.032 295.897, 181.558 297.447, 181.558 296.193, 180.647 296.672, 179.173 295.418, 180.084 294.164, 179.173 294.643, 180.647 293.389, 181.558 294.939, 181.558"/>
<polygon points=" 301.144, 200.72 301.623, 199.246 303.173, 199.246 301.919, 198.335 302.398, 196.861 301.144, 197.772 299.89, 196.861 300.369, 198.335 299.115, 199.246 300.665, 199.246"/>
<polygon points=" 306.871, 184.227 307.35, 182.753 308.9, 182.753 307.646, 181.842 308.125, 180.368 306.871, 181.279 305.617, 180.368 306.096, 181.842 304.842, 182.753 306.392, 182.753"/>
<polygon points=" 312.597, 194.505 313.076, 193.031 314.626, 193.031 313.372, 192.12 313.851, 190.646 312.597, 191.557 311.343, 190.646 311.822, 192.12 310.568, 193.031 312.118, 193.031"/>
<polygon points=" 318.324, 189.486 318.803, 188.012 320.353, 188.012 319.099, 187.101 319.578, 185.627 318.324, 186.538 317.07, 185.627 317.549, 187.101 316.295, 188.012 317.845, 188.012"/>
<polygon points=" 324.05, 200.003 324.529, 198.529 326.079, 198.529 324.825, 197.618 325.304, 196.144 324.05, 197.055 322.797, 196.144 323.275, 197.618 322.022, 198.529 323.572, 198.529"/>
<polygon points=" 329.777, 186.378 330.256, 184.904 331.806, 184.904 330.552, 183.993 331.031, 182.519 329.777, 183.43 328.523, 182.519 329.002, 183.993 327.748, 184.904 329.298, 184.904"/>
<polygon points=" 335.504, 201.198 335.983, 199.724 337.532, 199.724 336.279, 198.813 336.758, 197.339 335.504, 198.25 334.25, 197.339 334.729, 198.813 333.475, 199.724 335.025, 199.724"/>
<polygon points=" 341.23, 189.964 341.709, 188.49 343.259, 188.49 342.005, 187.579 342.484, 186.105 341.23, 187.016 339.976, 186.105 340.455, 187.579 339.201, 188.49 340.751, 188.49"/>
<polygon points=" 346.957, 203.827 347.436, 202.353 348.986, 202.353 347.732, 201.442 348.211, 199.968 346.957, 200.879 345.703, 199.968 346.182, 201.442 344.928, 202.353 346.478, 202.353"/>
<polygon points=" 352.683, 195.701 353.162, 194.226 354.712, 194.226 353.458, 193.315 353.937, 191.841 352.683, 192.752 351.429, 191.841 351.908, 193.315 350.654, 194.226 352.204, 194.226"/>
<polygon points=" 358.41, 202.871 358.889, 201.397 360.439, 201.397 359.185, 200.486 359.664, 199.012 358.41, 199.923 357.156, 199.012 357.635, 200.486 356.381, 201.397 357.931, 201.397"/>
<polygon points=" 364.136, 206.457 364.615, 204.983 366.165, 204.983 364.911, 204.072 365.39, 202.598 364.136, 203.509 362.882, 202.598 363.361, 204.072 362.107, 204.983 363.657, 204.983"/>
<polygon points=" 369.863, 209.325 370.342, 207.851 371.892, 207.851 370.638, 206.94 371.117, 205.466 369.863, 206.377 368.609, 205.466 369.088, 206.94 367.834, 207.851 369.384, 207.851"/>
<polygon points=" 375.589, 206.218 376.068, 204.744 377.618, 204.744 376.364, 203.833 376.843, 202.358 375.589, 203.27 374.336, 202.358 374.815, 203.833 373.561, 204.744 375.111, 204.744"/>
<polygon points=" 381.316, 213.149 381.795, 211.675 383.345, 211.675 382.091, 210.764 382.57, 209.29 381.316, 210.201 380.062, 209.29 380.541, 210.764 379.287, 211.675 380.837, 211.675"/>
<polygon points=" 387.043, 204.545 387.522, 203.07 389.071, 203.07 387.818, 202.159 388.297, 200.685 387.043, 201.596 385.789, 200.685 386.268, 202.159 385.014, 203.07 386.564, 203.07"/>
<polygon points=" 392.769, 213.628 393.248, 212.153 394.798, 212.153 393.544, 211.242 394.023, 209.768 392.769, 210.679 391.515, 209.768 391.994, 211.242 390.74, 212.153 392.29, 212.153"/>
<polygon points=" 398.496, 210.998 398.975, 209.524 400.525, 209.524 399.271, 208.613 399.75, 207.139 398.496, 208.05 397.242, 207.139 397.721, 208.613 396.467, 209.524 398.017, 209.524"/>
<polygon points=" 404.222, 219.364 404.701, 217.89 406.251, 217.89 404.997, 216.979 405.476, 215.505 404.222, 216.416 402.968, 215.505 403.447, 216.979 402.193, 217.89 403.743, 217.89"/>
<polygon points=" 409.949, 206.696 410.428, 205.222 411.978, 205.222 410.724, 204.311 411.203, 202.837 409.949, 203.748 408.695, 202.837 409.174, 204.311 407.92, 205.222 409.47, 205.222"/>
</g>
<g stroke="black" stroke-width="1" fill="none">
<line x1="321.917" y1="198.587" x2="326.184" y2="198.587"/><line x1="324.05" y1="196.453" x2="324.05" y2="200.72"/><line x1="321.917" y1="196.453" x2="326.184" y2="200.72"/><line x1="321.917" y1="200.72" x2="326.184" y2="196.453"/>
<line x1="327.644" y1="183.289" x2="331.91" y2="183.289"/><line x1="329.777" y1="181.156" x2="329.777" y2="185.422"/><line x1="327.644" y1="181.156" x2="331.91" y2="185.422"/><line x1="327.644" y1="185.422" x2="331.91" y2="181.156"/>
<line x1="333.37" y1="197.392" x2="337.637" y2="197.392"/><line x1="335.504" y1="195.258" x2="335.504" y2="199.525"/><line x1="333.37" y1="195.258" x2="337.637" y2="199.525"/><line x1="333.37" y1="199.525" x2="337.637" y2="195.258"/>
<line x1="339.097" y1="187.113" x2="343.363" y2="187.113"/><line x1="341.23" y1="184.98" x2="341.23" y2="189.247"/><line x1="339.097" y1="184.98" x2="343.363" y2="189.247"/><line x1="339.097" y1="189.247" x2="343.363" y2="184.98"/>
<line x1="344.823" y1="189.743" x2="349.09" y2="189.743"/><line x1="346.957" y1="187.609" x2="346.957" y2="191.876"/><line x1="344.823" y1="187.609" x2="349.09" y2="191.876"/><line x1="344.823" y1="191.876" x2="349.09" y2="187.609"/>
<line x1="350.55" y1="191.177" x2="354.817" y2="191.177"/><line x1="352.683" y1="189.044" x2="352.683" y2="193.31"/><line x1="350.55" y1="189.044" x2="354.817" y2="193.31"/><line x1="350.55" y1="193.31" x2="354.817" y2="189.044"/>
<line x1="356.276" y1="195.24" x2="360.543" y2="195.24"/><line x1="358.41" y1="193.107" x2="358.41" y2="197.374"/><line x1="356.276" y1="193.107" x2="360.543" y2="197.374"/><line x1="356.276" y1="197.374" x2="360.543" y2="193.107"/>
<line x1="362.003" y1="208.626" x2="366.27" y2="208.626"/><line x1="364.136" y1="206.493" x2="364.136" y2="210.759"/><line x1="362.003" y1="206.493" x2="366.27" y2="210.759"/><line x1="362.003" y1="210.759" x2="366.27" y2="206.493"/>
<line x1="367.73" y1="205.997" x2="371.996" y2="205.997"/><line x1="369.863" y1="203.863" x2="369.863" y2="208.13"/><line x1="367.73" y1="203.863" x2="371.996" y2="208.13"/><line x1="367.73" y1="208.13" x2="371.996" y2="203.863"/>
<line x1="373.456" y1="206.475" x2="377.723" y2="206.475"/><line x1="375.589" y1="204.341" x2="375.589" y2="208.608"/><line x1="373.456" y1="204.341" x2="377.723" y2="208.608"/><line x1="373.456" y1="208.608" x2="377.723" y2="204.341"/>
<line x1="379.183" y1="211.733" x2="383.449" y2="211.733"/><line x1="381.316" y1="209.6" x2="381.316" y2="213.867"/><line x1="379.183" y1="209.6" x2="383.449" y2="213.867"/><line x1="379.183" y1="213.867" x2="383.449" y2="209.6"/>
<line x1="384.909" y1="201.933" x2="389.176" y2="201.933"/><line x1="387.043" y1="199.8" x2="387.043" y2="204.066"/><line x1="384.909" y1="199.8" x2="389.176" y2="204.066"/><line x1="384.909" y1="204.066" x2="389.176" y2="199.8"/>
<line x1="390.636" y1="210.06" x2="394.902" y2="210.06"/><line x1="392.769" y1="207.927" x2="392.769" y2="212.193"/><line x1="390.636" y1="207.927" x2="394.902" y2="212.193"/><line x1="390.636" y1="212.193" x2="394.902" y2="207.927"/>
<line x1="396.362" y1="207.909" x2="400.629" y2="207.909"/><line x1="398.496" y1="205.775" x2="398.496" y2="210.042"/><line x1="396.362" y1="205.775" x2="400.629" y2="210.042"/><line x1="396.362" y1="210.042" x2="400.629" y2="205.775"/>
<line x1="402.089" y1="214.363" x2="406.356" y2="214.363"/><line x1="404.222" y1="212.229" x2="404.222" y2="216.496"/><line x1="402.089" y1="212.229" x2="406.356" y2="216.496"/><line x1="402.089" y1="216.496" x2="406.356" y2="212.229"/>
<line x1="407.815" y1="205.519" x2="412.082" y2="205.519"/><line x1="409.949" y1="203.385" x2="409.949" y2="207.652"/><line x1="407.815" y1="203.385" x2="412.082" y2="207.652"/><line x1="407.815" y1="207.652" x2="412.082" y2="203.385"/>
<line x1="413.542" y1="213.645" x2="417.809" y2="213.645"/><line x1="415.675" y1="211.512" x2="415.675" y2="215.779"/><line x1="413.542" y1="211.512" x2="417.809" y2="215.779"/><line x1="413.542" y1="215.779" x2="417.809" y2="211.512"/>
<line x1="419.269" y1="209.343" x2="423.535" y2="209.343"/><line x1="421.402" y1="207.21" x2="421.402" y2="211.476"/><line x1="419.269" y1="207.21" x2="423.535" y2="211.476"/><line x1="419.269" y1="211.476" x2="423.535" y2="207.21"/>
</g>
<g stroke="black" stroke-width="1" fill="none">
<polygon points=" 367.73, 187.37 371.996, 187.37 369.863, 191.637"/>
<polygon points=" 373.456, 215.815 377.723, 215.815 375.589, 220.081"/>
<polygon points=" 379.183, 203.624 383.449, 203.624 381.316, 207.891"/>
<polygon points=" 384.909, 206.971 389.176, 206.971 387.043, 211.237"/>
<polygon points=" 390.636, 223.942 394.902, 223.942 392.769, 228.208"/>
<polygon points=" 396.362, 198.844 400.629, 198.844 398.496, 203.11"/>
<polygon points=" 402.089, 216.054 406.356, 216.054 404.222, 220.32"/>
<polygon points=" 407.815, 206.732 412.082, 206.732 409.949, 210.998"/>
<polygon points=" 413.542, 212.707 417.809, 212.707 415.675, 216.974"/>
<polygon points=" 419.269, 206.732 423.535, 206.732 421.402, 210.998"/>
</g>
<g stroke="black" stroke-width="1" fill="black">
<polygon points=" 426.417, 210.544 426.417, 209.122 427.84, 209.122 427.84, 210.544 429.262, 210.544 429.262, 211.966 427.84, 211.966 427.84, 213.389 426.417, 213.389 426.417, 211.966 424.995, 211.966 424.995, 210.544"/>
<polygon points=" 432.144, 211.739 432.144, 210.317 433.566, 210.317 433.566, 211.739 434.988, 211.739 434.988, 213.161 433.566, 213.161 433.566, 214.584 432.144, 214.584 432.144, 213.161 430.722, 213.161 430.722, 211.739"/>
</g>
<g stroke="black" stroke-width="1" fill="none">
<line x1="437.582" y1="217.948" x2="438.582" y2="217.948"/>
<line x1="443.308" y1="209.343" x2="444.308" y2="209.343"/>
<line x1="449.035" y1="218.187" x2="450.035" y2="218.187"/>
<line x1="454.761" y1="212.689" x2="455.761" y2="212.689"/>
</g>
<g stroke="black" stroke-width="1" fill="none">
<line x1="408.949" y1="205.758" x2="409.949" y2="205.758"/>
<line x1="414.675" y1="217.709" x2="415.675" y2="217.709"/>
<line x1="420.402" y1="211.972" x2="421.402" y2="211.972"/>
<line x1="426.128" y1="212.689" x2="427.128" y2="212.689"/>
<line x1="431.855" y1="244.719" x2="432.855" y2="244.719"/>
<line x1="437.582" y1="217.47" x2="438.582" y2="217.47"/>
<line x1="443.308" y1="209.343" x2="444.308" y2="209.343"/>
</g>
<g stroke="black" stroke-width="1" fill="none">
<line x1="380.316" y1="178.987" x2="381.316" y2="178.987"/>
<line x1="386.043" y1="229.421" x2="387.043" y2="229.421"/>
<line x1="391.769" y1="198.587" x2="392.769" y2="198.587"/>
<line x1="397.496" y1="230.138" x2="398.496" y2="230.138"/>
<line x1="403.222" y1="207.192" x2="404.222" y2="207.192"/>
<line x1="408.949" y1="229.182" x2="409.949" y2="229.182"/>
<line x1="414.675" y1="191.894" x2="415.675" y2="191.894"/>
<line x1="420.402" y1="250.217" x2="421.402" y2="250.217"/>
<line x1="426.128" y1="217.47" x2="427.128" y2="217.47"/>
<line x1="431.855" y1="226.075" x2="432.855" y2="226.075"/>
<line x1="437.582" y1="222.011" x2="438.582" y2="222.011"/>
<line x1="443.308" y1="212.211" x2="444.308" y2="212.211"/>
<line x1="449.035" y1="225.119" x2="450.035" y2="225.119"/>
<line x1="454.761" y1="207.67" x2="455.761" y2="207.67"/>
<line x1="460.488" y1="218.426" x2="461.488" y2="218.426"/>
<line x1="466.214" y1="212.928" x2="467.214" y2="212.928"/>
<line x1="471.941" y1="215.558" x2="472.941" y2="215.558"/>
<line x1="477.668" y1="214.841" x2="478.668" y2="214.841"/>
</g>
<g stroke="black" stroke-width="1" fill="none">
<line x1="403.222" y1="209.582" x2="404.222" y2="209.582"/>
<line x1="408.949" y1="226.075" x2="409.949" y2="226.075"/>
<line x1="414.675" y1="209.821" x2="415.675" y2="209.821"/>
<line x1="420.402" y1="303.998" x2="421.402" y2="303.998"/>
<line x1="426.128" y1="216.275" x2="427.128" y2="216.275"/>
<line x1="431.855" y1="215.319" x2="432.855" y2="215.319"/>
<line x1="437.582" y1="217.709" x2="438.582" y2="217.709"/>
<line x1="443.308" y1="214.602" x2="444.308" y2="214.602"/>
<line x1="449.035" y1="216.036" x2="450.035" y2="216.036"/>
<line x1="454.761" y1="213.645" x2="455.761" y2="213.645"/>
<line x1="460.488" y1="216.275" x2="461.488" y2="216.275"/>
<line x1="466.214" y1="212.689" x2="467.214" y2="212.689"/>
<line x1="471.941" y1="215.558" x2="472.941" y2="215.558"/>
<line x1="477.668" y1="214.363" x2="478.668" y2="214.363"/>
<line x1="483.394" y1="216.753" x2="484.394" y2="216.753"/>
<line x1="489.121" y1="210.777" x2="490.121" y2="210.777"/>
</g></svg>
