<?xml version="1.0" standalone="no"?>
<svg width="567.429" height="311.267" viewBox="0 0 567.429 311.267" xmlns="http://www.w3.org/2000/svg">
<title>
/home/qiliqiang/Desktop/ex4.svg
</title>
<desc>
Creator: ROOT Version 5.34/30
CreationDate: Thu Jul  6 15:20:59 2017</desc>
<defs>
</defs>
<rect x="0.5" y="0" width="566.929" height="310.767" fill="white"/>
<rect x="57.1929" y="31.0767" width="453.543" height="248.613" fill="white"/>
<rect x="57.1929" y="31.0767" width="453.543" height="248.613" fill="none" stroke="black"/>
<rect x="57.1929" y="31.0767" width="453.543" height="248.613" fill="white"/>
<rect x="57.1929" y="31.0767" width="453.543" height="248.613" fill="none" stroke="black"/>
<path d="M57.1929,279.69h 453.543" fill="none" stroke="black"/>
<text x="436.599" y="300.872" fill="black" font-size="10.4787" font-family="Helvetica">
Neutron number
</text>
<path d="M106.049,272.232v 7.4584" fill="none" stroke="black"/>
<path d="M120.169,275.961v 3.7292" fill="none" stroke="black"/>
<path d="M134.29,275.961v 3.7292" fill="none" stroke="black"/>
<path d="M148.41,275.961v 3.7292" fill="none" stroke="black"/>
<path d="M162.53,272.232v 7.4584" fill="none" stroke="black"/>
<path d="M176.65,275.961v 3.7292" fill="none" stroke="black"/>
<path d="M190.771,275.961v 3.7292" fill="none" stroke="black"/>
<path d="M204.891,275.961v 3.7292" fill="none" stroke="black"/>
<path d="M219.011,272.232v 7.4584" fill="none" stroke="black"/>
<path d="M233.132,275.961v 3.7292" fill="none" stroke="black"/>
<path d="M247.252,275.961v 3.7292" fill="none" stroke="black"/>
<path d="M261.372,275.961v 3.7292" fill="none" stroke="black"/>
<path d="M275.492,272.232v 7.4584" fill="none" stroke="black"/>
<path d="M289.613,275.961v 3.7292" fill="none" stroke="black"/>
<path d="M303.733,275.961v 3.7292" fill="none" stroke="black"/>
<path d="M317.853,275.961v 3.7292" fill="none" stroke="black"/>
<path d="M331.974,272.232v 7.4584" fill="none" stroke="black"/>
<path d="M346.094,275.961v 3.7292" fill="none" stroke="black"/>
<path d="M360.214,275.961v 3.7292" fill="none" stroke="black"/>
<path d="M374.334,275.961v 3.7292" fill="none" stroke="black"/>
<path d="M388.455,272.232v 7.4584" fill="none" stroke="black"/>
<path d="M402.575,275.961v 3.7292" fill="none" stroke="black"/>
<path d="M416.695,275.961v 3.7292" fill="none" stroke="black"/>
<path d="M430.815,275.961v 3.7292" fill="none" stroke="black"/>
<path d="M444.936,272.232v 7.4584" fill="none" stroke="black"/>
<path d="M459.056,275.961v 3.7292" fill="none" stroke="black"/>
<path d="M473.176,275.961v 3.7292" fill="none" stroke="black"/>
<path d="M487.297,275.961v 3.7292" fill="none" stroke="black"/>
<path d="M501.417,272.232v 7.4584" fill="none" stroke="black"/>
<path d="M106.049,272.232v 7.4584" fill="none" stroke="black"/>
<path d="M91.9288,275.961v 3.7292" fill="none" stroke="black"/>
<path d="M77.8085,275.961v 3.7292" fill="none" stroke="black"/>
<path d="M63.6882,275.961v 3.7292" fill="none" stroke="black"/>
<path d="M501.417,272.232v 7.4584" fill="none" stroke="black"/>
<text x="100.546" y="289.878" fill="black" font-size="10.4787" font-family="Helvetica">
20
</text>
<text x="156.983" y="289.878" fill="black" font-size="10.4787" font-family="Helvetica">
40
</text>
<text x="213.419" y="289.878" fill="black" font-size="10.4787" font-family="Helvetica">
60
</text>
<text x="269.855" y="289.878" fill="black" font-size="10.4787" font-family="Helvetica">
80
</text>
<text x="323.36" y="289.878" fill="black" font-size="10.4787" font-family="Helvetica">
100
</text>
<text x="379.796" y="289.878" fill="black" font-size="10.4787" font-family="Helvetica">
120
</text>
<text x="436.233" y="289.878" fill="black" font-size="10.4787" font-family="Helvetica">
140
</text>
<text x="492.669" y="289.878" fill="black" font-size="10.4787" font-family="Helvetica">
160
</text>
<path d="M57.1929,279.69v -248.613" fill="none" stroke="black"/>
<g transform="rotate(-90,29.0847,79.524)">
<text x="29.0847" y="79.524" fill="black" font-size="10.4787" font-family="Helvetica">
ratio 8+/6+
</text>
</g>
<path d="M70.7992,266.882h -13.6063" fill="none" stroke="black"/>
<path d="M63.9961,260.831h -6.80315" fill="none" stroke="black"/>
<path d="M63.9961,254.78h -6.80315" fill="none" stroke="black"/>
<path d="M63.9961,248.729h -6.80315" fill="none" stroke="black"/>
<path d="M70.7992,242.677h -13.6063" fill="none" stroke="black"/>
<path d="M63.9961,236.626h -6.80315" fill="none" stroke="black"/>
<path d="M63.9961,230.575h -6.80315" fill="none" stroke="black"/>
<path d="M63.9961,224.524h -6.80315" fill="none" stroke="black"/>
<path d="M70.7992,218.472h -13.6063" fill="none" stroke="black"/>
<path d="M63.9961,212.421h -6.80315" fill="none" stroke="black"/>
<path d="M63.9961,206.37h -6.80315" fill="none" stroke="black"/>
<path d="M63.9961,200.319h -6.80315" fill="none" stroke="black"/>
<path d="M70.7992,194.267h -13.6063" fill="none" stroke="black"/>
<path d="M63.9961,188.216h -6.80315" fill="none" stroke="black"/>
<path d="M63.9961,182.165h -6.80315" fill="none" stroke="black"/>
<path d="M63.9961,176.114h -6.80315" fill="none" stroke="black"/>
<path d="M70.7992,170.062h -13.6063" fill="none" stroke="black"/>
<path d="M63.9961,164.011h -6.80315" fill="none" stroke="black"/>
<path d="M63.9961,157.96h -6.80315" fill="none" stroke="black"/>
<path d="M63.9961,151.909h -6.80315" fill="none" stroke="black"/>
<path d="M70.7992,145.857h -13.6063" fill="none" stroke="black"/>
<path d="M63.9961,139.806h -6.80315" fill="none" stroke="black"/>
<path d="M63.9961,133.755h -6.80315" fill="none" stroke="black"/>
<path d="M63.9961,127.704h -6.80315" fill="none" stroke="black"/>
<path d="M70.7992,121.652h -13.6063" fill="none" stroke="black"/>
<path d="M63.9961,115.601h -6.80315" fill="none" stroke="black"/>
<path d="M63.9961,109.55h -6.80315" fill="none" stroke="black"/>
<path d="M63.9961,103.499h -6.80315" fill="none" stroke="black"/>
<path d="M70.7992,97.4474h -13.6063" fill="none" stroke="black"/>
<path d="M63.9961,91.3961h -6.80315" fill="none" stroke="black"/>
<path d="M63.9961,85.3449h -6.80315" fill="none" stroke="black"/>
<path d="M63.9961,79.2936h -6.80315" fill="none" stroke="black"/>
<path d="M70.7992,73.2424h -13.6063" fill="none" stroke="black"/>
<path d="M63.9961,67.1911h -6.80315" fill="none" stroke="black"/>
<path d="M63.9961,61.1399h -6.80315" fill="none" stroke="black"/>
<path d="M63.9961,55.0886h -6.80315" fill="none" stroke="black"/>
<path d="M70.7992,49.0374h -13.6063" fill="none" stroke="black"/>
<path d="M70.7992,266.882h -13.6063" fill="none" stroke="black"/>
<path d="M63.9961,272.934h -6.80315" fill="none" stroke="black"/>
<path d="M63.9961,278.985h -6.80315" fill="none" stroke="black"/>
<path d="M70.7992,49.0374h -13.6063" fill="none" stroke="black"/>
<path d="M63.9961,42.9861h -6.80315" fill="none" stroke="black"/>
<path d="M63.9961,36.9349h -6.80315" fill="none" stroke="black"/>
<text x="40.0788" y="270.455" fill="black" font-size="10.4787" font-family="Helvetica">
0.2
</text>
<text x="40.0788" y="246.268" fill="black" font-size="10.4787" font-family="Helvetica">
0.4
</text>
<text x="40.0788" y="222.081" fill="black" font-size="10.4787" font-family="Helvetica">
0.6
</text>
<text x="40.0788" y="197.894" fill="black" font-size="10.4787" font-family="Helvetica">
0.8
</text>
<text x="50.3399" y="174.073" fill="black" font-size="10.4787" font-family="Helvetica">
1
</text>
<text x="40.0788" y="149.886" fill="black" font-size="10.4787" font-family="Helvetica">
1.2
</text>
<text x="40.0788" y="125.333" fill="black" font-size="10.4787" font-family="Helvetica">
1.4
</text>
<text x="40.0788" y="100.779" fill="black" font-size="10.4787" font-family="Helvetica">
1.6
</text>
<text x="40.0788" y="76.5922" fill="black" font-size="10.4787" font-family="Helvetica">
1.8
</text>
<text x="48.5076" y="52.7717" fill="black" font-size="10.4787" font-family="Helvetica">
2
</text>
<g stroke="black" stroke-width="1" fill="none">
<line x1="76.8085" y1="170.758" x2="77.8085" y2="170.758"/>
</g>
<g stroke="black" stroke-width="1" fill="none">
<line x1="98.9351" y1="139.493" x2="101.867" y2="139.493"/><line x1="100.401" y1="138.027" x2="100.401" y2="140.959"/>
</g>
<g stroke="black" stroke-width="1" fill="none">
<line x1="98.9351" y1="137.841" x2="101.867" y2="137.841"/><line x1="100.401" y1="136.376" x2="100.401" y2="139.307"/><line x1="98.9351" y1="136.376" x2="101.867" y2="139.307"/><line x1="98.9351" y1="139.307" x2="101.867" y2="136.376"/>
<line x1="104.583" y1="136.003" x2="107.515" y2="136.003"/><line x1="106.049" y1="134.537" x2="106.049" y2="137.469"/><line x1="104.583" y1="134.537" x2="107.515" y2="137.469"/><line x1="104.583" y1="137.469" x2="107.515" y2="134.537"/>
</g>
<g stroke="black" stroke-width="1" fill="none">
<circle cx="106.049" cy="149.647" r="1.46588"/>
<circle cx="111.697" cy="133.406" r="1.46588"/>
<circle cx="117.345" cy="140.605" r="1.46588"/>
</g>
<g stroke="black" stroke-width="1" fill="none">
<line x1="110.231" y1="171.942" x2="113.163" y2="174.873"/><line x1="110.231" y1="174.873" x2="113.163" y2="171.942"/>
<line x1="115.879" y1="208.105" x2="118.811" y2="211.037"/><line x1="115.879" y1="211.037" x2="118.811" y2="208.105"/>
<line x1="121.528" y1="110.378" x2="124.459" y2="113.309"/><line x1="121.528" y1="113.309" x2="124.459" y2="110.378"/>
</g>
<g stroke="black" stroke-width="1" fill="black">
<circle cx="117.345" cy="108.83" r="0.0293176"/>
<circle cx="122.993" cy="222.925" r="0.0293176"/>
<circle cx="128.642" cy="144.402" r="0.0293176"/>
<circle cx="145.586" cy="115.133" r="0.0293176"/>
</g>
<g stroke="black" stroke-width="1" fill="black">
<circle cx="122.993" cy="187.84" r="0.0586352"/>
<circle cx="128.642" cy="174.545" r="0.0586352"/>
<circle cx="134.29" cy="178.932" r="0.0586352"/>
<circle cx="139.938" cy="124.686" r="0.0586352"/>
<circle cx="145.586" cy="140.18" r="0.0586352"/>
</g>
<g stroke="black" stroke-width="1" fill="black">
<circle cx="122.993" cy="42.3773" r="1.46588"/>
<circle cx="128.642" cy="143.874" r="1.46588"/>
<circle cx="139.938" cy="111.793" r="1.46588"/>
<circle cx="145.586" cy="177.21" r="1.46588"/>
<circle cx="168.178" cy="161.792" r="1.46588"/>
</g>
<g stroke="black" stroke-width="1" fill="black">
<circle cx="134.29" cy="122.898" r="1.46588"/>
</g>
<g stroke="black" stroke-width="1" fill="black">
<circle cx="145.586" cy="127.032" r="1.46588"/>
<circle cx="151.234" cy="134.374" r="1.46588"/>
<circle cx="156.882" cy="130.743" r="1.46588"/>
<circle cx="162.53" cy="156.498" r="1.46588"/>
</g>
<g stroke="black" stroke-width="1" fill="black">
<circle cx="145.586" cy="132.018" r="1.46588"/>
<circle cx="151.234" cy="105.419" r="1.46588"/>
<circle cx="156.882" cy="194.913" r="1.46588"/>
<circle cx="162.53" cy="161.513" r="1.46588"/>
<circle cx="168.178" cy="158.106" r="1.46588"/>
<circle cx="173.826" cy="95.2711" r="1.46588"/>
</g>
<g stroke="black" stroke-width="1" fill="black">
<circle cx="151.234" cy="113.072" r="1.46588"/>
<circle cx="156.882" cy="104.351" r="1.46588"/>
<circle cx="162.53" cy="103.658" r="1.46588"/>
<circle cx="168.178" cy="107.898" r="1.46588"/>
<circle cx="173.826" cy="103.883" r="1.46588"/>
<circle cx="185.123" cy="146.537" r="1.46588"/>
</g>
<g stroke="black" stroke-width="1" fill="black">
<circle cx="162.53" cy="97.5122" r="1.46588"/>
<circle cx="173.826" cy="136.477" r="1.46588"/>
<circle cx="179.475" cy="132.479" r="1.46588"/>
<circle cx="185.123" cy="158.193" r="1.46588"/>
</g>
<g stroke="black" stroke-width="1" fill="black">
<circle cx="168.178" cy="104.614" r="1.46588"/>
<circle cx="173.826" cy="154.647" r="1.46588"/>
<circle cx="179.475" cy="130.945" r="1.46588"/>
<circle cx="185.123" cy="145.091" r="1.46588"/>
<circle cx="190.771" cy="195.435" r="1.46588"/>
<circle cx="207.715" cy="171.155" r="1.46588"/>
<circle cx="224.659" cy="91.0512" r="1.46588"/>
</g>
<g stroke="black" stroke-width="1" fill="black">
<circle cx="179.475" cy="143.066" r="1.46588"/>
<circle cx="185.123" cy="157.409" r="1.46588"/>
<circle cx="190.771" cy="163.159" r="1.46588"/>
<circle cx="196.419" cy="205.378" r="1.46588"/>
<circle cx="202.067" cy="160.266" r="1.46588"/>
<circle cx="213.363" cy="118.953" r="1.46588"/>
<circle cx="219.011" cy="107.089" r="1.46588"/>
<circle cx="224.659" cy="127.802" r="1.46588"/>
<circle cx="230.308" cy="131.347" r="1.46588"/>
<circle cx="235.956" cy="96.6265" r="1.46588"/>
</g>
<g stroke="black" stroke-width="1" fill="black">
<circle cx="190.771" cy="162.989" r="1.46588"/>
<circle cx="196.419" cy="167.635" r="1.46588"/>
<circle cx="202.067" cy="120.901" r="1.46588"/>
<circle cx="207.715" cy="154.23" r="1.46588"/>
<circle cx="213.363" cy="164.446" r="1.46588"/>
<circle cx="219.011" cy="110.639" r="1.46588"/>
<circle cx="230.308" cy="101.699" r="1.46588"/>
<circle cx="235.956" cy="101.198" r="1.46588"/>
<circle cx="241.604" cy="116.642" r="1.46588"/>
</g>
<g stroke="black" stroke-width="1" fill="black">
<circle cx="202.067" cy="115.383" r="1.46588"/>
<circle cx="207.715" cy="99.603" r="1.46588"/>
<circle cx="213.363" cy="175.619" r="1.46588"/>
<circle cx="219.011" cy="118.436" r="1.46588"/>
<circle cx="224.659" cy="154.579" r="1.46588"/>
<circle cx="230.308" cy="114.548" r="1.46588"/>
<circle cx="235.956" cy="110.096" r="1.46588"/>
<circle cx="247.252" cy="109.201" r="1.46588"/>
</g>
<g stroke="black" stroke-width="1" fill="black">
<circle cx="202.067" cy="125.471" r="1.46588"/>
<circle cx="207.715" cy="127.169" r="1.46588"/>
<circle cx="213.363" cy="151.774" r="1.46588"/>
<circle cx="219.011" cy="187.547" r="1.46588"/>
<circle cx="224.659" cy="160.895" r="1.46588"/>
<circle cx="230.308" cy="141.725" r="1.46588"/>
<circle cx="241.604" cy="155.53" r="1.46588"/>
</g>
<g stroke="black" stroke-width="1" fill="black">
<circle cx="207.715" cy="109.94" r="1.46588"/>
<circle cx="213.363" cy="112.364" r="1.46588"/>
<circle cx="219.011" cy="123.524" r="1.46588"/>
<circle cx="224.659" cy="146.524" r="1.46588"/>
<circle cx="230.308" cy="155.266" r="1.46588"/>
<circle cx="235.956" cy="154.039" r="1.46588"/>
<circle cx="241.604" cy="142.096" r="1.46588"/>
</g>
<g stroke="black" stroke-width="1" fill="black">
<circle cx="207.715" cy="117.055" r="1.46588"/>
<circle cx="213.363" cy="130.393" r="1.46588"/>
<circle cx="219.011" cy="135.787" r="1.46588"/>
<circle cx="224.659" cy="128.173" r="1.46588"/>
<circle cx="230.308" cy="123.454" r="1.46588"/>
<circle cx="235.956" cy="91.7716" r="1.46588"/>
<circle cx="241.604" cy="163.675" r="1.46588"/>
<circle cx="247.252" cy="149.609" r="1.46588"/>
<circle cx="252.9" cy="153.833" r="1.46588"/>
<circle cx="258.548" cy="102.599" r="1.46588"/>
<circle cx="286.789" cy="104.518" r="1.46588"/>
</g>
<g stroke="black" stroke-width="1" fill="black">
<rect x="211.897" y="113.383" width="2.93176" height="2.93176"/>
<rect x="217.545" y="116.941" width="2.93176" height="2.93176"/>
<rect x="223.194" y="130.98" width="2.93176" height="2.93176"/>
<rect x="228.842" y="163.991" width="2.93176" height="2.93176"/>
<rect x="234.49" y="161.71" width="2.93176" height="2.93176"/>
<rect x="240.138" y="106.64" width="2.93176" height="2.93176"/>
<rect x="245.786" y="125.244" width="2.93176" height="2.93176"/>
<rect x="251.434" y="156.461" width="2.93176" height="2.93176"/>
<rect x="257.082" y="114.529" width="2.93176" height="2.93176"/>
<rect x="262.73" y="121.718" width="2.93176" height="2.93176"/>
<rect x="285.323" y="111.859" width="2.93176" height="2.93176"/>
<rect x="290.971" y="120.255" width="2.93176" height="2.93176"/>
</g>
<g stroke="black" stroke-width="1" fill="black">
<polygon points=" 241.604, 100.101 243.07, 103.033 240.138, 103.033"/>
<polygon points=" 247.252, 99.7249 248.718, 102.657 245.786, 102.657"/>
<polygon points=" 252.9, 127.339 254.366, 130.271 251.434, 130.271"/>
<polygon points=" 258.548, 107.666 260.014, 110.598 257.082, 110.598"/>
<polygon points=" 264.196, 114.223 265.662, 117.155 262.73, 117.155"/>
<polygon points=" 281.141, 114.704 282.606, 117.636 279.675, 117.636"/>
<polygon points=" 292.437, 148.229 293.903, 151.161 290.971, 151.161"/>
<polygon points=" 298.085, 104.561 299.551, 107.493 296.619, 107.493"/>
<polygon points=" 303.733, 102.273 305.199, 105.205 302.267, 105.205"/>
<polygon points=" 309.381, 100.145 310.847, 103.077 307.915, 103.077"/>
</g>
<g stroke="black" stroke-width="1" fill="black">
<polygon points=" 234.49, 92.7523 237.422, 92.7523 235.956, 95.6841"/>
<polygon points=" 240.138, 95.8623 243.07, 95.8623 241.604, 98.794"/>
<polygon points=" 245.786, 141.801 248.718, 141.801 247.252, 144.733"/>
<polygon points=" 251.434, 101.96 254.366, 101.96 252.9, 104.891"/>
<polygon points=" 257.082, 106.868 260.014, 106.868 258.548, 109.8"/>
<polygon points=" 262.73, 131.091 265.662, 131.091 264.196, 134.023"/>
<polygon points=" 268.378, 136.678 271.31, 136.678 269.844, 139.61"/>
<polygon points=" 274.027, 151.946 276.958, 151.946 275.492, 154.878"/>
<polygon points=" 279.675, 163.837 282.606, 163.837 281.141, 166.769"/>
<polygon points=" 285.323, 145.99 288.255, 145.99 286.789, 148.922"/>
<polygon points=" 296.619, 110.099 299.551, 110.099 298.085, 113.031"/>
<polygon points=" 302.267, 103.762 305.199, 103.762 303.733, 106.693"/>
<polygon points=" 307.915, 93.3054 310.847, 93.3054 309.381, 96.2371"/>
<polygon points=" 313.563, 88.8861 316.495, 88.8861 315.029, 91.8179"/>
</g>
<g stroke="black" stroke-width="1" fill="none">
<circle cx="241.604" cy="94.5645" r="1.46588"/>
<circle cx="252.9" cy="108.215" r="1.46588"/>
<circle cx="258.548" cy="109.891" r="1.46588"/>
<circle cx="264.196" cy="108.684" r="1.46588"/>
<circle cx="269.844" cy="114.824" r="1.46588"/>
<circle cx="275.492" cy="188.434" r="1.46588"/>
<circle cx="281.141" cy="193.493" r="1.46588"/>
<circle cx="286.789" cy="163.04" r="1.46588"/>
<circle cx="292.437" cy="114.717" r="1.46588"/>
<circle cx="298.085" cy="137.568" r="1.46588"/>
<circle cx="303.733" cy="101.145" r="1.46588"/>
<circle cx="309.381" cy="89.5457" r="1.46588"/>
<circle cx="315.029" cy="87.7051" r="1.46588"/>
<circle cx="320.677" cy="86.8413" r="1.46588"/>
</g>
<g stroke="black" stroke-width="1" fill="none">
<rect x="251.434" y="102.35" width="2.93176" height="2.93176"/>
<rect x="257.082" y="123.682" width="2.93176" height="2.93176"/>
<rect x="262.73" y="109.043" width="2.93176" height="2.93176"/>
<rect x="268.378" y="116.978" width="2.93176" height="2.93176"/>
<rect x="274.027" y="123.287" width="2.93176" height="2.93176"/>
<rect x="285.323" y="110.372" width="2.93176" height="2.93176"/>
<rect x="290.971" y="139.857" width="2.93176" height="2.93176"/>
<rect x="296.619" y="115.796" width="2.93176" height="2.93176"/>
<rect x="302.267" y="143.739" width="2.93176" height="2.93176"/>
<rect x="307.915" y="220.322" width="2.93176" height="2.93176"/>
<rect x="313.563" y="85.4942" width="2.93176" height="2.93176"/>
<rect x="324.86" y="85.3293" width="2.93176" height="2.93176"/>
</g>
<g stroke="black" stroke-width="1" fill="none">
<polygon points=" 258.548, 107.088 260.014, 110.02 257.082, 110.02"/>
<polygon points=" 264.196, 112.713 265.662, 115.645 262.73, 115.645"/>
<polygon points=" 269.844, 122.895 271.31, 125.826 268.378, 125.826"/>
<polygon points=" 281.141, 146.961 282.606, 149.893 279.675, 149.893"/>
<polygon points=" 286.789, 109.654 288.255, 112.586 285.323, 112.586"/>
<polygon points=" 292.437, 123.412 293.903, 126.344 290.971, 126.344"/>
<polygon points=" 298.085, 140.551 299.551, 143.483 296.619, 143.483"/>
<polygon points=" 303.733, 178.471 305.199, 181.403 302.267, 181.403"/>
<polygon points=" 309.381, 188.329 310.847, 191.261 307.915, 191.261"/>
<polygon points=" 315.029, 222.747 316.495, 225.679 313.563, 225.679"/>
<polygon points=" 320.677, 214.209 322.143, 217.141 319.211, 217.141"/>
<polygon points=" 326.325, 85.6079 327.791, 88.5397 324.86, 88.5397"/>
</g>
<g stroke="black" stroke-width="1" fill="none">
<polygon points=" 281.141, 164.121 282.118, 165.587 281.141, 167.052 280.163, 165.587"/>
<polygon points=" 286.789, 132.57 287.766, 134.036 286.789, 135.502 285.811, 134.036"/>
<polygon points=" 292.437, 54.9347 293.414, 56.4006 292.437, 57.8664 291.459, 56.4006"/>
<polygon points=" 298.085, 131.734 299.062, 133.2 298.085, 134.666 297.108, 133.2"/>
<polygon points=" 303.733, 68.4434 304.71, 69.9092 303.733, 71.3751 302.756, 69.9092"/>
<polygon points=" 309.381, 230.963 310.358, 232.429 309.381, 233.895 308.404, 232.429"/>
<polygon points=" 315.029, 219.326 316.006, 220.792 315.029, 222.258 314.052, 220.792"/>
<polygon points=" 320.677, 187.593 321.655, 189.058 320.677, 190.524 319.7, 189.058"/>
<polygon points=" 326.325, 85.7391 327.303, 87.2049 326.325, 88.6708 325.348, 87.2049"/>
<polygon points=" 331.974, 84.7746 332.951, 86.2405 331.974, 87.7064 330.996, 86.2405"/>
</g>
<g stroke="black" stroke-width="1" fill="none">
<polygon points=" 280.652, 164.402 280.652, 163.425 281.629, 163.425 281.629, 164.402 282.606, 164.402 282.606, 165.379 281.629, 165.379 281.629, 166.357 280.652, 166.357 280.652, 165.379 279.675, 165.379 279.675, 164.402"/>
<polygon points=" 286.3, 151.767 286.3, 150.789 287.277, 150.789 287.277, 151.767 288.255, 151.767 288.255, 152.744 287.277, 152.744 287.277, 153.721 286.3, 153.721 286.3, 152.744 285.323, 152.744 285.323, 151.767"/>
<polygon points=" 291.948, 115.695 291.948, 114.717 292.925, 114.717 292.925, 115.695 293.903, 115.695 293.903, 116.672 292.925, 116.672 292.925, 117.649 291.948, 117.649 291.948, 116.672 290.971, 116.672 290.971, 115.695"/>
<polygon points=" 297.596, 138.181 297.596, 137.204 298.573, 137.204 298.573, 138.181 299.551, 138.181 299.551, 139.158 298.573, 139.158 298.573, 140.135 297.596, 140.135 297.596, 139.158 296.619, 139.158 296.619, 138.181"/>
<polygon points=" 303.244, 104.32 303.244, 103.343 304.222, 103.343 304.222, 104.32 305.199, 104.32 305.199, 105.297 304.222, 105.297 304.222, 106.275 303.244, 106.275 303.244, 105.297 302.267, 105.297 302.267, 104.32"/>
<polygon points=" 308.892, 96.4216 308.892, 95.4443 309.87, 95.4443 309.87, 96.4216 310.847, 96.4216 310.847, 97.3988 309.87, 97.3988 309.87, 98.3761 308.892, 98.3761 308.892, 97.3988 307.915, 97.3988 307.915, 96.4216"/>
<polygon points=" 314.541, 135.339 314.541, 134.361 315.518, 134.361 315.518, 135.339 316.495, 135.339 316.495, 136.316 315.518, 136.316 315.518, 137.293 314.541, 137.293 314.541, 136.316 313.563, 136.316 313.563, 135.339"/>
<polygon points=" 320.189, 112.045 320.189, 111.067 321.166, 111.067 321.166, 112.045 322.143, 112.045 322.143, 113.022 321.166, 113.022 321.166, 113.999 320.189, 113.999 320.189, 113.022 319.211, 113.022 319.211, 112.045"/>
<polygon points=" 325.837, 217.124 325.837, 216.147 326.814, 216.147 326.814, 217.124 327.791, 217.124 327.791, 218.102 326.814, 218.102 326.814, 219.079 325.837, 219.079 325.837, 218.102 324.86, 218.102 324.86, 217.124"/>
<polygon points=" 331.485, 190.31 331.485, 189.333 332.462, 189.333 332.462, 190.31 333.439, 190.31 333.439, 191.288 332.462, 191.288 332.462, 192.265 331.485, 192.265 331.485, 191.288 330.508, 191.288 330.508, 190.31"/>
</g>
<g stroke="black" stroke-width="1" fill="black">
<polygon points=" 292.437, 133.428 292.766, 132.415 293.831, 132.415 292.969, 131.789 293.298, 130.776 292.437, 131.402 291.575, 130.776 291.904, 131.789 291.043, 132.415 292.108, 132.415"/>
<polygon points=" 303.733, 109.38 304.062, 108.367 305.127, 108.367 304.265, 107.741 304.595, 106.728 303.733, 107.354 302.871, 106.728 303.2, 107.741 302.339, 108.367 303.404, 108.367"/>
<polygon points=" 309.381, 146.691 309.71, 145.678 310.775, 145.678 309.914, 145.052 310.243, 144.039 309.381, 144.666 308.519, 144.039 308.849, 145.052 307.987, 145.678 309.052, 145.678"/>
<polygon points=" 315.029, 97.7985 315.358, 96.7857 316.423, 96.7857 315.562, 96.1596 315.891, 95.1467 315.029, 95.7728 314.168, 95.1467 314.497, 96.1596 313.635, 96.7857 314.7, 96.7857"/>
<polygon points=" 320.677, 139.767 321.006, 138.754 322.071, 138.754 321.21, 138.128 321.539, 137.115 320.677, 137.741 319.816, 137.115 320.145, 138.128 319.283, 138.754 320.348, 138.754"/>
<polygon points=" 326.325, 91.8793 326.655, 90.8664 327.72, 90.8664 326.858, 90.2404 327.187, 89.2275 326.325, 89.8535 325.464, 89.2275 325.793, 90.2404 324.931, 90.8664 325.996, 90.8664"/>
<polygon points=" 331.974, 146.874 332.303, 145.861 333.368, 145.861 332.506, 145.235 332.835, 144.222 331.974, 144.848 331.112, 144.222 331.441, 145.235 330.579, 145.861 331.644, 145.861"/>
<polygon points=" 337.622, 146.741 337.951, 145.728 339.016, 145.728 338.154, 145.102 338.483, 144.089 337.622, 144.715 336.76, 144.089 337.089, 145.102 336.228, 145.728 337.293, 145.728"/>
<polygon points=" 343.27, 221.597 343.599, 220.584 344.664, 220.584 343.802, 219.958 344.131, 218.945 343.27, 219.571 342.408, 218.945 342.737, 219.958 341.876, 220.584 342.941, 220.584"/>
<polygon points=" 348.918, 87.8408 349.247, 86.8279 350.312, 86.8279 349.45, 86.2018 349.779, 85.1889 348.918, 85.815 348.056, 85.1889 348.385, 86.2018 347.524, 86.8279 348.589, 86.8279"/>
</g>
<g stroke="black" stroke-width="1" fill="none">
<polygon points=" 286.789, 174.009 287.118, 172.996 288.183, 172.996 287.321, 172.37 287.65, 171.357 286.789, 171.983 285.927, 171.357 286.256, 172.37 285.395, 172.996 286.46, 172.996"/>
<polygon points=" 298.085, 118.514 298.414, 117.501 299.479, 117.501 298.617, 116.875 298.946, 115.862 298.085, 116.488 297.223, 115.862 297.552, 116.875 296.691, 117.501 297.756, 117.501"/>
<polygon points=" 303.733, 110.969 304.062, 109.956 305.127, 109.956 304.265, 109.33 304.595, 108.317 303.733, 108.943 302.871, 108.317 303.2, 109.33 302.339, 109.956 303.404, 109.956"/>
<polygon points=" 315.029, 102.853 315.358, 101.84 316.423, 101.84 315.562, 101.214 315.891, 100.201 315.029, 100.827 314.168, 100.201 314.497, 101.214 313.635, 101.84 314.7, 101.84"/>
<polygon points=" 320.677, 98.4656 321.006, 97.4527 322.071, 97.4527 321.21, 96.8267 321.539, 95.8138 320.677, 96.4398 319.816, 95.8138 320.145, 96.8267 319.283, 97.4527 320.348, 97.4527"/>
<polygon points=" 331.974, 92.7078 332.303, 91.6949 333.368, 91.6949 332.506, 91.0689 332.835, 90.056 331.974, 90.682 331.112, 90.056 331.441, 91.0689 330.579, 91.6949 331.644, 91.6949"/>
<polygon points=" 337.622, 147.205 337.951, 146.192 339.016, 146.192 338.154, 145.566 338.483, 144.553 337.622, 145.18 336.76, 144.553 337.089, 145.566 336.228, 146.192 337.293, 146.192"/>
<polygon points=" 343.27, 218.408 343.599, 217.395 344.664, 217.395 343.802, 216.769 344.131, 215.756 343.27, 216.382 342.408, 215.756 342.737, 216.769 341.876, 217.395 342.941, 217.395"/>
<polygon points=" 348.918, 146.836 349.247, 145.823 350.312, 145.823 349.45, 145.197 349.779, 144.184 348.918, 144.81 348.056, 144.184 348.385, 145.197 347.524, 145.823 348.589, 145.823"/>
<polygon points=" 354.566, 87.8869 354.895, 86.8741 355.96, 86.8741 355.098, 86.248 355.428, 85.2351 354.566, 85.8612 353.704, 85.2351 354.033, 86.248 353.172, 86.8741 354.237, 86.8741"/>
</g>
<g stroke="black" stroke-width="1" fill="none">
<line x1="290.971" y1="147.736" x2="293.903" y2="147.736"/><line x1="292.437" y1="146.27" x2="292.437" y2="149.202"/><line x1="290.971" y1="146.27" x2="293.903" y2="149.202"/><line x1="290.971" y1="149.202" x2="293.903" y2="146.27"/>
<line x1="307.915" y1="106.983" x2="310.847" y2="106.983"/><line x1="309.381" y1="105.517" x2="309.381" y2="108.449"/><line x1="307.915" y1="105.517" x2="310.847" y2="108.449"/><line x1="307.915" y1="108.449" x2="310.847" y2="105.517"/>
<line x1="313.563" y1="105.252" x2="316.495" y2="105.252"/><line x1="315.029" y1="103.787" x2="315.029" y2="106.718"/><line x1="313.563" y1="103.787" x2="316.495" y2="106.718"/><line x1="313.563" y1="106.718" x2="316.495" y2="103.787"/>
<line x1="319.211" y1="186.552" x2="322.143" y2="186.552"/><line x1="320.677" y1="185.086" x2="320.677" y2="188.018"/><line x1="319.211" y1="185.086" x2="322.143" y2="188.018"/><line x1="319.211" y1="188.018" x2="322.143" y2="185.086"/>
<line x1="324.86" y1="100.406" x2="327.791" y2="100.406"/><line x1="326.325" y1="98.9406" x2="326.325" y2="101.872"/><line x1="324.86" y1="98.9406" x2="327.791" y2="101.872"/><line x1="324.86" y1="101.872" x2="327.791" y2="98.9406"/>
<line x1="330.508" y1="95.836" x2="333.439" y2="95.836"/><line x1="331.974" y1="94.3701" x2="331.974" y2="97.3019"/><line x1="330.508" y1="94.3701" x2="333.439" y2="97.3019"/><line x1="330.508" y1="97.3019" x2="333.439" y2="94.3701"/>
<line x1="336.156" y1="192.256" x2="339.087" y2="192.256"/><line x1="337.622" y1="190.79" x2="337.622" y2="193.722"/><line x1="336.156" y1="190.79" x2="339.087" y2="193.722"/><line x1="336.156" y1="193.722" x2="339.087" y2="190.79"/>
<line x1="341.804" y1="135.826" x2="344.736" y2="135.826"/><line x1="343.27" y1="134.361" x2="343.27" y2="137.292"/><line x1="341.804" y1="134.361" x2="344.736" y2="137.292"/><line x1="341.804" y1="137.292" x2="344.736" y2="134.361"/>
<line x1="347.452" y1="210.215" x2="350.384" y2="210.215"/><line x1="348.918" y1="208.749" x2="348.918" y2="211.68"/><line x1="347.452" y1="208.749" x2="350.384" y2="211.68"/><line x1="347.452" y1="211.68" x2="350.384" y2="208.749"/>
<line x1="353.1" y1="212.287" x2="356.032" y2="212.287"/><line x1="354.566" y1="210.821" x2="354.566" y2="213.753"/><line x1="353.1" y1="210.821" x2="356.032" y2="213.753"/><line x1="353.1" y1="213.753" x2="356.032" y2="210.821"/>
<line x1="358.748" y1="133.353" x2="361.68" y2="133.353"/><line x1="360.214" y1="131.887" x2="360.214" y2="134.819"/><line x1="358.748" y1="131.887" x2="361.68" y2="134.819"/><line x1="358.748" y1="134.819" x2="361.68" y2="131.887"/>
<line x1="364.396" y1="89.2793" x2="367.328" y2="89.2793"/><line x1="365.862" y1="87.8134" x2="365.862" y2="90.7452"/><line x1="364.396" y1="87.8134" x2="367.328" y2="90.7452"/><line x1="364.396" y1="90.7452" x2="367.328" y2="87.8134"/>
</g>
<g stroke="black" stroke-width="1" fill="none">
<polygon points=" 302.267, 124.677 305.199, 124.677 303.733, 127.608"/>
<polygon points=" 307.915, 110.143 310.847, 110.143 309.381, 113.075"/>
<polygon points=" 313.563, 111.875 316.495, 111.875 315.029, 114.806"/>
<polygon points=" 319.211, 170.625 322.143, 170.625 320.677, 173.557"/>
<polygon points=" 324.86, 190.084 327.791, 190.084 326.325, 193.015"/>
<polygon points=" 330.508, 191.753 333.439, 191.753 331.974, 194.685"/>
<polygon points=" 341.804, 208.573 344.736, 208.573 343.27, 211.505"/>
<polygon points=" 347.452, 192.284 350.384, 192.284 348.918, 195.215"/>
<polygon points=" 353.1, 212.119 356.032, 212.119 354.566, 215.051"/>
<polygon points=" 358.748, 174.278 361.68, 174.278 360.214, 177.21"/>
<polygon points=" 375.693, 113.33 378.624, 113.33 377.158, 116.262"/>
</g>
<g stroke="black" stroke-width="1" fill="black">
<polygon points=" 320.677, 127.634 321.655, 129.1 320.677, 130.566 319.7, 129.1"/>
<polygon points=" 326.325, 115.164 327.303, 116.63 326.325, 118.096 325.348, 116.63"/>
<polygon points=" 331.974, 103.259 332.951, 104.725 331.974, 106.191 330.996, 104.725"/>
<polygon points=" 337.622, 100.81 338.599, 102.276 337.622, 103.741 336.644, 102.276"/>
<polygon points=" 343.27, 134.269 344.247, 135.735 343.27, 137.201 342.292, 135.735"/>
<polygon points=" 348.918, 206.854 349.895, 208.32 348.918, 209.786 347.941, 208.32"/>
<polygon points=" 354.566, 104.289 355.543, 105.755 354.566, 107.221 353.589, 105.755"/>
<polygon points=" 365.862, 109.681 366.839, 111.147 365.862, 112.613 364.885, 111.147"/>
<polygon points=" 371.51, 121.844 372.488, 123.31 371.51, 124.776 370.533, 123.31"/>
<polygon points=" 382.807, 158.024 383.784, 159.49 382.807, 160.956 381.829, 159.49"/>
<polygon points=" 388.455, 118.605 389.432, 120.071 388.455, 121.537 387.477, 120.071"/>
</g>
<g stroke="black" stroke-width="1" fill="black">
<polygon points=" 325.837, 133.994 325.837, 133.017 326.814, 133.017 326.814, 133.994 327.791, 133.994 327.791, 134.971 326.814, 134.971 326.814, 135.949 325.837, 135.949 325.837, 134.971 324.86, 134.971 324.86, 133.994"/>
<polygon points=" 331.485, 122.078 331.485, 121.101 332.462, 121.101 332.462, 122.078 333.439, 122.078 333.439, 123.056 332.462, 123.056 332.462, 124.033 331.485, 124.033 331.485, 123.056 330.508, 123.056 330.508, 122.078"/>
<polygon points=" 337.133, 116.609 337.133, 115.632 338.11, 115.632 338.11, 116.609 339.087, 116.609 339.087, 117.587 338.11, 117.587 338.11, 118.564 337.133, 118.564 337.133, 117.587 336.156, 117.587 336.156, 116.609"/>
<polygon points=" 342.781, 129.883 342.781, 128.906 343.758, 128.906 343.758, 129.883 344.736, 129.883 344.736, 130.86 343.758, 130.86 343.758, 131.838 342.781, 131.838 342.781, 130.86 341.804, 130.86 341.804, 129.883"/>
<polygon points=" 348.429, 175.993 348.429, 175.016 349.406, 175.016 349.406, 175.993 350.384, 175.993 350.384, 176.97 349.406, 176.97 349.406, 177.947 348.429, 177.947 348.429, 176.97 347.452, 176.97 347.452, 175.993"/>
<polygon points=" 354.077, 156.429 354.077, 155.452 355.055, 155.452 355.055, 156.429 356.032, 156.429 356.032, 157.406 355.055, 157.406 355.055, 158.384 354.077, 158.384 354.077, 157.406 353.1, 157.406 353.1, 156.429"/>
<polygon points=" 365.374, 126.346 365.374, 125.368 366.351, 125.368 366.351, 126.346 367.328, 126.346 367.328, 127.323 366.351, 127.323 366.351, 128.3 365.374, 128.3 365.374, 127.323 364.396, 127.323 364.396, 126.346"/>
<polygon points=" 382.318, 134.786 382.318, 133.808 383.295, 133.808 383.295, 134.786 384.272, 134.786 384.272, 135.763 383.295, 135.763 383.295, 136.74 382.318, 136.74 382.318, 135.763 381.341, 135.763 381.341, 134.786"/>
<polygon points=" 387.966, 100.589 387.966, 99.6115 388.943, 99.6115 388.943, 100.589 389.921, 100.589 389.921, 101.566 388.943, 101.566 388.943, 102.543 387.966, 102.543 387.966, 101.566 386.989, 101.566 386.989, 100.589"/>
</g>
<g stroke="black" stroke-width="1" fill="none">
<line x1="359.214" y1="129.679" x2="360.214" y2="129.679"/>
<line x1="370.51" y1="166.53" x2="371.51" y2="166.53"/>
<line x1="387.455" y1="206.896" x2="388.455" y2="206.896"/>
<line x1="398.751" y1="148.686" x2="399.751" y2="148.686"/>
<line x1="404.399" y1="250.703" x2="405.399" y2="250.703"/>
<line x1="410.047" y1="161.656" x2="411.047" y2="161.656"/>
</g>
<g stroke="black" stroke-width="1" fill="none">
<line x1="364.862" y1="119.214" x2="365.862" y2="119.214"/>
<line x1="370.51" y1="160.482" x2="371.51" y2="160.482"/>
<line x1="376.158" y1="169.169" x2="377.158" y2="169.169"/>
<line x1="387.455" y1="152.421" x2="388.455" y2="152.421"/>
<line x1="393.103" y1="121.822" x2="394.103" y2="121.822"/>
<line x1="398.751" y1="177.132" x2="399.751" y2="177.132"/>
<line x1="404.399" y1="177.243" x2="405.399" y2="177.243"/>
<line x1="410.047" y1="159.352" x2="411.047" y2="159.352"/>
</g>
<g stroke="black" stroke-width="1" fill="none">
<line x1="376.158" y1="150.59" x2="377.158" y2="150.59"/>
<line x1="381.807" y1="140.443" x2="382.807" y2="140.443"/>
<line x1="387.455" y1="159.01" x2="388.455" y2="159.01"/>
<line x1="393.103" y1="175.015" x2="394.103" y2="175.015"/>
<line x1="410.047" y1="154.798" x2="411.047" y2="154.798"/>
<line x1="415.695" y1="128.701" x2="416.695" y2="128.701"/>
</g>
<g stroke="black" stroke-width="1" fill="none">
<line x1="393.103" y1="164.119" x2="394.103" y2="164.119"/>
<line x1="404.399" y1="153.172" x2="405.399" y2="153.172"/>
<line x1="410.047" y1="153.771" x2="411.047" y2="153.771"/>
<line x1="415.695" y1="124.22" x2="416.695" y2="124.22"/>
<line x1="421.343" y1="115.003" x2="422.343" y2="115.003"/>
<line x1="432.639" y1="100.328" x2="433.639" y2="100.328"/>
<line x1="438.288" y1="96.925" x2="439.288" y2="96.925"/>
</g>
<g stroke="black" stroke-width="1" fill="none">
<line x1="404.399" y1="168.5" x2="405.399" y2="168.5"/>
<line x1="410.047" y1="154.431" x2="411.047" y2="154.431"/>
<line x1="415.695" y1="90.3478" x2="416.695" y2="90.3478"/>
<line x1="421.343" y1="114.552" x2="422.343" y2="114.552"/>
<line x1="426.991" y1="102.424" x2="427.991" y2="102.424"/>
<line x1="432.639" y1="95.6063" x2="433.639" y2="95.6063"/>
<line x1="438.288" y1="148.43" x2="439.288" y2="148.43"/>
<line x1="443.936" y1="89.1524" x2="444.936" y2="89.1524"/>
<line x1="449.584" y1="226.948" x2="450.584" y2="226.948"/>
<line x1="455.232" y1="87.5781" x2="456.232" y2="87.5781"/>
</g>
<g stroke="black" stroke-width="1" fill="none">
<line x1="438.288" y1="89.4953" x2="439.288" y2="89.4953"/>
<line x1="443.936" y1="145.243" x2="444.936" y2="145.243"/>
<line x1="449.584" y1="157.567" x2="450.584" y2="157.567"/>
<line x1="455.232" y1="87.2969" x2="456.232" y2="87.2969"/>
<line x1="460.88" y1="148.368" x2="461.88" y2="148.368"/>
</g>
<g stroke="black" stroke-width="1" fill="none">
<line x1="449.584" y1="87.006" x2="450.584" y2="87.006"/>
<line x1="455.232" y1="86.1837" x2="456.232" y2="86.1837"/>
<line x1="460.88" y1="86.4975" x2="461.88" y2="86.4975"/>
<line x1="466.528" y1="86.215" x2="467.528" y2="86.215"/>
<line x1="472.176" y1="87.4761" x2="473.176" y2="87.4761"/>
<line x1="477.824" y1="85.9858" x2="478.824" y2="85.9858"/>
</g>
<g stroke="black" stroke-width="1" fill="none">
<line x1="466.528" y1="232.669" x2="467.528" y2="232.669"/>
<line x1="472.176" y1="85.55" x2="473.176" y2="85.55"/>
<line x1="477.824" y1="152.908" x2="478.824" y2="152.908"/>
</g>
<g stroke="black" stroke-width="1" fill="none">
<line x1="472.176" y1="268.389" x2="473.176" y2="268.389"/>
<line x1="477.824" y1="86.6533" x2="478.824" y2="86.6533"/>
</g>
<g stroke="black" stroke-width="1" fill="none">
<line x1="466.528" y1="85.3067" x2="467.528" y2="85.3067"/>
<line x1="489.121" y1="86.1081" x2="490.121" y2="86.1081"/>
</g>
<g stroke="black" stroke-width="1" fill="none">
<line x1="477.824" y1="84.8671" x2="478.824" y2="84.8671"/>
</g></svg>
